<svg xmlns="http://www.w3.org/2000/svg" viewBox="0 0 500 500" width="500" height="500" preserveAspectRatio="xMidYMid meet" style="width: 100%; height: 100%; transform: translate3d(0px, 0px, 0px); content-visibility: visible;"><defs><clipPath id="__lottie_element_2478"><rect width="500" height="500" x="0" y="0"></rect></clipPath><clipPath id="__lottie_element_2485"><path d="M0,0 L500,0 L500,500 L0,500z"></path></clipPath><clipPath id="__lottie_element_2495"><path d="M0,0 L500,0 L500,500 L0,500z"></path></clipPath><clipPath id="__lottie_element_2502"><path d="M0,0 L500,0 L500,500 L0,500z"></path></clipPath></defs><g clip-path="url(#__lottie_element_2478)"><g clip-path="url(#__lottie_element_2495)" transform="matrix(1,0,0,1,0,0)" opacity="1" style="display: block;"><g clip-path="url(#__lottie_element_2502)" style="display: none;"><g class="primary design" style="display: none;"><g><path></path><path stroke-linecap="butt" stroke-linejoin="miter" fill-opacity="0" stroke-miterlimit="4"></path></g></g><g class="primary design" style="display: none;"><g><path></path><path stroke-linecap="butt" stroke-linejoin="miter" fill-opacity="0" stroke-miterlimit="4"></path></g></g><g class="primary design" style="display: none;"><g><path></path><path stroke-linecap="butt" stroke-linejoin="miter" fill-opacity="0" stroke-miterlimit="4"></path></g></g><g class="primary design" style="display: none;"><g><path></path><path stroke-linecap="butt" stroke-linejoin="miter" fill-opacity="0" stroke-miterlimit="4"></path></g></g></g><g class="primary design" transform="matrix(1,0,0,1,250.00399780273438,260.4200134277344)" opacity="1" style="display: block;"><g opacity="1" transform="matrix(1,0,0,1,0,0)"><path fill="rgb(0,0,0)" fill-opacity="1" d=" M187.5,-177.08299255371094 C187.5,-177.08299255371094 187.5,-108.33300018310547 187.5,-108.33300018310547 C187.5,-91.66600036621094 180.625,-75.625 168.75,-64.16699981689453 C168.75,-64.16699981689453 62.5,20.41699981689453 62.5,20.41699981689453 C62.5,20.41699981689453 62.5,135.41700744628906 62.5,135.41700744628906 C62.5,143.33399963378906 58.125,150.41600036621094 51.04199981689453,153.95799255371094 C51.04199981689453,153.95799255371094 -32.29199981689453,195.625 -32.29199981689453,195.625 C-35.20899963378906,197.08299255371094 -38.54199981689453,197.91700744628906 -41.66699981689453,197.91700744628906 C-45.41699981689453,197.91700744628906 -49.375,196.875 -52.70800018310547,194.79200744628906 C-58.75,191.04200744628906 -62.5,184.375 -62.5,177.08299255371094 C-62.5,177.08299255371094 -62.5,20.41699981689453 -62.5,20.41699981689453 C-62.5,20.41699981689453 -167.29200744628906,-62.91699981689453 -167.29200744628906,-62.91699981689453 C-180.625,-75.625 -187.5,-91.66600036621094 -187.5,-108.33300018310547 C-187.5,-108.33300018310547 -187.5,-177.08299255371094 -187.5,-177.08299255371094 C-187.5,-188.54100036621094 -178.125,-197.91700744628906 -166.66700744628906,-197.91700744628906 C-166.66700744628906,-197.91700744628906 166.66700744628906,-197.91700744628906 166.66700744628906,-197.91700744628906 C178.125,-197.91700744628906 187.5,-188.54100036621094 187.5,-177.08299255371094z"></path></g></g></g><g clip-path="url(#__lottie_element_2485)" transform="matrix(1,0,0,1,0,0)" opacity="0" style="display: block;"><g class="primary design" style="display: none;"><g><path stroke-linecap="round" stroke-linejoin="round" fill-opacity="0"></path></g></g><g class="primary design" style="display: none;"><g><path></path></g></g></g><g class="com" style="display: none;"><g><path></path></g><g><path></path></g><g><path></path></g><g><path></path></g><g><path></path></g><g><path></path></g><g><path></path></g><g><path></path></g><g><path></path></g><g><path></path></g><g><path></path></g><g><path></path></g></g></g></svg>