<svg xmlns="http://www.w3.org/2000/svg" viewBox="0 0 500 500" width="500" height="500" preserveAspectRatio="xMidYMid meet" style="width: 100%; height: 100%; transform: translate3d(0px, 0px, 0px); content-visibility: visible;"><defs><clipPath id="__lottie_element_2587"><rect width="500" height="500" x="0" y="0"></rect></clipPath><clipPath id="__lottie_element_2594"><path d="M0,0 L500,0 L500,500 L0,500z"></path></clipPath><filter id="__lottie_element_2601" filterUnits="objectBoundingBox" x="0%" y="0%" width="100%" height="100%"><feComponentTransfer in="SourceGraphic"><feFuncA type="table" tableValues="1.0 0.0"></feFuncA></feComponentTransfer></filter><mask id="__lottie_element_2600" mask-type="alpha"><g filter="url(#__lottie_element_2601)"><rect width="500" height="500" x="0" y="0" fill="#ffffff" opacity="0"></rect><g clip-path="url(#__lottie_element_2602)" style="display: none;"><g class="primary design" style="display: none;"><g><path stroke-linecap="round" stroke-linejoin="round" fill-opacity="0"></path></g></g><g class="primary design" style="display: none;"><g><path stroke-linecap="round" stroke-linejoin="round" fill-opacity="0"></path></g></g><g class="primary design" style="display: none;"><g><path stroke-linecap="round" stroke-linejoin="miter" fill-opacity="0" stroke-miterlimit="10"></path></g></g></g></g></mask><clipPath id="__lottie_element_2602"><path d="M0,0 L500,0 L500,500 L0,500z"></path></clipPath><clipPath id="__lottie_element_2619"><path d="M0,0 L500,0 L500,500 L0,500z"></path></clipPath><filter id="__lottie_element_2629" filterUnits="objectBoundingBox" x="0%" y="0%" width="100%" height="100%"><feComponentTransfer in="SourceGraphic"><feFuncA type="table" tableValues="1.0 0.0"></feFuncA></feComponentTransfer></filter><mask id="__lottie_element_2628" mask-type="alpha"><g filter="url(#__lottie_element_2629)"><rect width="500" height="500" x="0" y="0" fill="#ffffff" opacity="0"></rect><g clip-path="url(#__lottie_element_2630)" style="display: none;"><g class="primary design" style="display: none;"><g><path stroke-linecap="round" stroke-linejoin="miter" fill-opacity="0" stroke-miterlimit="10"></path></g></g><g class="primary design" style="display: none;"><g><path stroke-linecap="round" stroke-linejoin="round" fill-opacity="0"></path></g></g><g class="primary design" style="display: none;"><g><path stroke-linecap="round" stroke-linejoin="round" fill-opacity="0"></path></g></g></g></g></mask><clipPath id="__lottie_element_2630"><path d="M0,0 L500,0 L500,500 L0,500z"></path></clipPath><clipPath id="__lottie_element_2646"><path d="M0,0 L500,0 L500,500 L0,500z"></path></clipPath><filter id="__lottie_element_2667" filterUnits="objectBoundingBox" x="0%" y="0%" width="100%" height="100%"><feComponentTransfer in="SourceGraphic"><feFuncA type="table" tableValues="1.0 0.0"></feFuncA></feComponentTransfer></filter><mask id="__lottie_element_2666" mask-type="alpha"><g filter="url(#__lottie_element_2667)"><rect width="500" height="500" x="0" y="0" fill="#ffffff" opacity="0"></rect><g class="primary design" style="display: none;"><g><path stroke-linecap="round" stroke-linejoin="round" fill-opacity="0"></path><path></path></g></g></g></mask></defs><g clip-path="url(#__lottie_element_2587)"><g clip-path="url(#__lottie_element_2646)" transform="matrix(1,0,0,1,0,0)" opacity="0" style="display: block;"><g mask="url(#__lottie_element_2666)" style="display: none;"><g class="primary design"><g><path></path></g></g></g><g class="primary design" style="display: none;"><g><path stroke-linecap="round" stroke-linejoin="miter" fill-opacity="0" stroke-miterlimit="10"></path></g></g><g class="primary design" style="display: none;"><g><path stroke-linecap="round" stroke-linejoin="round" fill-opacity="0"></path></g></g><g class="primary design" style="display: none;"><g><path stroke-linecap="round" stroke-linejoin="round" fill-opacity="0"></path></g></g><g class="primary design" transform="matrix(1,0,0,1,250,250)" opacity="1" style="display: block;"><g opacity="1" transform="matrix(1,0,0,1,0,0)"><path fill="rgb(0,0,0)" fill-opacity="1" d=" M143.79600524902344,-150.83299255371094 C103.37899780273438,-189.16600036621094 50.4630012512207,-209.58299255371094 -4.953999996185303,-208.33299255371094 C-60.57899856567383,-206.875 -112.4540023803711,-183.95799255371094 -150.78700256347656,-143.75 C-189.1199951171875,-103.33300018310547 -209.53700256347656,-50.625 -208.28700256347656,5 C-206.82899475097656,60.625 -183.91200256347656,112.5 -143.70399475097656,150.83299255371094 C-104.53700256347656,188.125 -53.9119987487793,208.33299255371094 -0.16200000047683716,208.33299255371094 C-0.16200000047683716,208.33299255371094 5.046000003814697,208.33299255371094 5.046000003814697,208.33299255371094 C60.67100143432617,206.875 112.5459976196289,183.95799255371094 150.87899780273438,143.75 C188.17100524902344,104.58300018310547 208.37899780273438,53.75 208.37899780273438,-0.20800000429153442 C208.37899780273438,-0.20800000429153442 208.37899780273438,-5 208.37899780273438,-5 C206.92100524902344,-60.625 184.00399780273438,-112.5 143.79600524902344,-150.83299255371094z M18.378999710083008,122.5 C15.878999710083008,125 13.170999526977539,126.875 10.045999526977539,128.125 C6.921000003814697,129.58299255371094 3.378999948501587,130.20799255371094 0.04600000008940697,130.20799255371094 C-6.828999996185303,130.20799255371094 -13.494999885559082,127.5 -18.28700065612793,122.5 C-23.28700065612793,117.70800018310547 -25.996000289916992,111.25 -25.996000289916992,104.16699981689453 C-25.996000289916992,97.29199981689453 -23.28700065612793,90.625 -18.28700065612793,85.83300018310547 C-12.454000473022461,79.79100036621094 -3.2869999408721924,76.875 5.046000003814697,78.54199981689453 C6.7129998207092285,78.95899963378906 8.378999710083008,79.375 10.045999526977539,80.20800018310547 C11.503999710083008,80.83300018310547 13.170999526977539,81.66699981689453 14.420999526977539,82.5 C15.878999710083008,83.54199981689453 17.128999710083008,84.58300018310547 18.378999710083008,85.83300018310547 C23.378999710083008,90.625 26.08799934387207,97.29199981689453 26.08799934387207,104.16699981689453 C26.08799934387207,111.04199981689453 23.378999710083008,117.70800018310547 18.378999710083008,122.5z M38.79600143432617,7.5 C27.54599952697754,14.375 20.878999710083008,25.20800018310547 20.878999710083008,36.45800018310547 C20.878999710083008,47.91600036621094 11.503999710083008,57.29199981689453 0.04600000008940697,57.29199981689453 C-11.411999702453613,57.29199981689453 -20.78700065612793,47.91600036621094 -20.78700065612793,36.45800018310547 C-20.78700065612793,10.625 -6.620999813079834,-13.541999816894531 17.128999710083008,-28.125 C26.503999710083008,-33.95800018310547 36.08700180053711,-47.08300018310547 31.503999710083008,-65 C28.79599952697754,-75.625 19.836999893188477,-84.58399963378906 9.003999710083008,-87.29199981689453 C-1.4129999876022339,-90 -11.621000289916992,-88.125 -19.95400047302246,-81.66699981689453 C-28.07900047302246,-75.41699981689453 -32.6619987487793,-66.04100036621094 -32.6619987487793,-55.83300018310547 C-32.6619987487793,-44.375 -41.82899856567383,-35 -53.49599838256836,-35 C-64.9540023803711,-35 -74.3290023803711,-44.375 -74.3290023803711,-55.83300018310547 C-74.3290023803711,-79.16600036621094 -63.70399856567383,-100.41600036621094 -45.37099838256836,-114.58300018310547 C-27.038000106811523,-128.95799255371094 -3.496000051498413,-133.54100036621094 19.42099952697754,-127.70800018310547 C44.8380012512207,-121.25 65.25399780273438,-100.625 71.9209976196289,-75.41699981689453 C80.25399780273438,-42.91699981689453 66.9209976196289,-9.791999816894531 38.79600143432617,7.5z"></path></g></g><g class="primary design" style="display: none;"><g><path></path></g></g></g><g clip-path="url(#__lottie_element_2619)" transform="matrix(1,0,0,1,0,0)" opacity="1" style="display: block;"><g mask="url(#__lottie_element_2628)" style="display: none;"><g class="primary design"><g><path></path></g></g></g><g class="primary design" style="display: none;"><g><path></path></g></g><g class="primary design" transform="matrix(1,0,0,1,250,250)" opacity="1" style="display: block;"><g opacity="1" transform="matrix(1,0,0,1,0,0)"><path fill="rgb(0,0,0)" fill-opacity="1" d=" M143.79600524902344,-150.83299255371094 C103.37899780273438,-189.16600036621094 50.4630012512207,-209.58299255371094 -4.953999996185303,-208.33299255371094 C-60.57899856567383,-206.875 -112.4540023803711,-183.95799255371094 -150.78700256347656,-143.75 C-189.1199951171875,-103.33300018310547 -209.53700256347656,-50.625 -208.28700256347656,5 C-206.82899475097656,60.625 -183.91200256347656,112.5 -143.70399475097656,150.83299255371094 C-104.53700256347656,188.125 -53.9119987487793,208.33299255371094 -0.16200000047683716,208.33299255371094 C-0.16200000047683716,208.33299255371094 5.046000003814697,208.33299255371094 5.046000003814697,208.33299255371094 C60.67100143432617,206.875 112.5459976196289,183.95799255371094 150.87899780273438,143.75 C188.17100524902344,104.58300018310547 208.37899780273438,53.75 208.37899780273438,-0.20800000429153442 C208.37899780273438,-0.20800000429153442 208.37899780273438,-5 208.37899780273438,-5 C206.92100524902344,-60.625 184.00399780273438,-112.5 143.79600524902344,-150.83299255371094z M18.378999710083008,122.5 C15.878999710083008,125 13.170999526977539,126.875 10.045999526977539,128.125 C6.921000003814697,129.58299255371094 3.378999948501587,130.20799255371094 0.04600000008940697,130.20799255371094 C-6.828999996185303,130.20799255371094 -13.494999885559082,127.5 -18.28700065612793,122.5 C-23.28700065612793,117.70800018310547 -25.996000289916992,111.25 -25.996000289916992,104.16699981689453 C-25.996000289916992,97.29199981689453 -23.28700065612793,90.625 -18.28700065612793,85.83300018310547 C-12.454000473022461,79.79100036621094 -3.2869999408721924,76.875 5.046000003814697,78.54199981689453 C6.7129998207092285,78.95899963378906 8.378999710083008,79.375 10.045999526977539,80.20800018310547 C11.503999710083008,80.83300018310547 13.170999526977539,81.66699981689453 14.420999526977539,82.5 C15.878999710083008,83.54199981689453 17.128999710083008,84.58300018310547 18.378999710083008,85.83300018310547 C23.378999710083008,90.625 26.08799934387207,97.29199981689453 26.08799934387207,104.16699981689453 C26.08799934387207,111.04199981689453 23.378999710083008,117.70800018310547 18.378999710083008,122.5z M38.79600143432617,7.5 C27.54599952697754,14.375 20.878999710083008,25.20800018310547 20.878999710083008,36.45800018310547 C20.878999710083008,47.91600036621094 11.503999710083008,57.29199981689453 0.04600000008940697,57.29199981689453 C-11.411999702453613,57.29199981689453 -20.78700065612793,47.91600036621094 -20.78700065612793,36.45800018310547 C-20.78700065612793,10.625 -6.620999813079834,-13.541999816894531 17.128999710083008,-28.125 C26.503999710083008,-33.95800018310547 36.08700180053711,-47.08300018310547 31.503999710083008,-65 C28.79599952697754,-75.625 19.836999893188477,-84.58399963378906 9.003999710083008,-87.29199981689453 C-1.4129999876022339,-90 -11.621000289916992,-88.125 -19.95400047302246,-81.66699981689453 C-28.07900047302246,-75.41699981689453 -32.6619987487793,-66.04100036621094 -32.6619987487793,-55.83300018310547 C-32.6619987487793,-44.375 -41.82899856567383,-35 -53.49599838256836,-35 C-64.9540023803711,-35 -74.3290023803711,-44.375 -74.3290023803711,-55.83300018310547 C-74.3290023803711,-79.16600036621094 -63.70399856567383,-100.41600036621094 -45.37099838256836,-114.58300018310547 C-27.038000106811523,-128.95799255371094 -3.496000051498413,-133.54100036621094 19.42099952697754,-127.70800018310547 C44.8380012512207,-121.25 65.25399780273438,-100.625 71.9209976196289,-75.41699981689453 C80.25399780273438,-42.91699981689453 66.9209976196289,-9.791999816894531 38.79600143432617,7.5z"></path></g></g></g><g clip-path="url(#__lottie_element_2594)" transform="matrix(1,0,0,1,0,0)" opacity="0" style="display: block;"><g mask="url(#__lottie_element_2600)" style="display: none;"><g class="primary design"><path></path><g><path stroke-linecap="round" stroke-linejoin="round" fill-opacity="0"></path></g></g></g><g class="primary design" style="display: none;"><g><path></path></g></g></g><g class="com" style="display: none;"><g><path></path></g><g><path></path></g><g><path></path></g><g><path></path></g><g><path></path></g><g><path></path></g><g><path></path></g><g><path></path></g><g><path></path></g><g><path></path></g><g><path></path></g><g><path></path></g></g></g></svg>