<svg xmlns="http://www.w3.org/2000/svg" viewBox="0 0 500 500" width="500" height="500" preserveAspectRatio="xMidYMid meet" style="width: 100%; height: 100%; transform: translate3d(0px, 0px, 0px); content-visibility: visible;"><defs><clipPath id="__lottie_element_2674"><rect width="500" height="500" x="0" y="0"></rect></clipPath><clipPath id="__lottie_element_2681"><path d="M0,0 L500,0 L500,500 L0,500z"></path></clipPath><clipPath id="__lottie_element_2688"><path d="M0,0 L500,0 L500,500 L0,500z"></path></clipPath><filter id="__lottie_element_2704" filterUnits="objectBoundingBox" x="0%" y="0%" width="100%" height="100%"><feComponentTransfer in="SourceGraphic"><feFuncA type="table" tableValues="1.0 0.0"></feFuncA></feComponentTransfer></filter><mask id="__lottie_element_2703" mask-type="alpha"><g filter="url(#__lottie_element_2704)"><rect width="500" height="500" x="0" y="0" fill="#ffffff" opacity="0"></rect><g class="primary design" style="display: none;"><g><path></path><path stroke-linecap="butt" stroke-linejoin="miter" fill-opacity="0" stroke-miterlimit="4"></path></g></g></g></mask><filter id="__lottie_element_2720" filterUnits="objectBoundingBox" x="0%" y="0%" width="100%" height="100%"><feComponentTransfer in="SourceGraphic"><feFuncA type="table" tableValues="1.0 0.0"></feFuncA></feComponentTransfer></filter><mask id="__lottie_element_2719" mask-type="alpha"><g filter="url(#__lottie_element_2720)"><rect width="500" height="500" x="0" y="0" fill="#ffffff" opacity="0"></rect><g class="primary design" style="display: none;"><g><path></path><path stroke-linecap="butt" stroke-linejoin="miter" fill-opacity="0" stroke-miterlimit="4"></path></g></g></g></mask><filter id="__lottie_element_2727" filterUnits="objectBoundingBox" x="0%" y="0%" width="100%" height="100%"><feComponentTransfer in="SourceGraphic"><feFuncA type="table" tableValues="1.0 0.0"></feFuncA></feComponentTransfer></filter><mask id="__lottie_element_2726" mask-type="alpha"><g filter="url(#__lottie_element_2727)"><rect width="500" height="500" x="0" y="0" fill="#ffffff" opacity="0"></rect><g class="primary design" style="display: none;"><g><path></path><path stroke-linecap="butt" stroke-linejoin="miter" fill-opacity="0" stroke-miterlimit="4"></path></g></g></g></mask></defs><g clip-path="url(#__lottie_element_2674)"><g clip-path="url(#__lottie_element_2688)" transform="matrix(1,0,0,1,0,0)" opacity="1" style="display: block;"><g mask="url(#__lottie_element_2726)" style="display: none;"><g class="primary design"><g><path stroke-linecap="round" stroke-linejoin="round" fill-opacity="0"></path><path></path></g></g></g><g mask="url(#__lottie_element_2719)" style="display: none;"><g class="primary design"><path></path><g><path stroke-linecap="round" stroke-linejoin="round" fill-opacity="0"></path></g></g></g><g class="primary design" style="display: none;"><path></path><g><path stroke-linecap="round" stroke-linejoin="round" fill-opacity="0"></path></g></g><g class="primary design" style="display: none;"><g><path stroke-linecap="round" stroke-linejoin="round" fill-opacity="0"></path></g></g><g class="primary design" style="display: none;"><g><path></path><path stroke-linecap="round" stroke-linejoin="round" fill-opacity="0"></path></g></g><g mask="url(#__lottie_element_2703)" style="display: none;"><g class="primary design"><g><path stroke-linecap="round" stroke-linejoin="round" fill-opacity="0"></path><path></path></g></g></g><g class="primary design" style="display: none;"><g><path stroke-linecap="round" stroke-linejoin="round" fill-opacity="0"></path></g></g><g class="primary design" style="display: none;"><path></path><g><path stroke-linecap="round" stroke-linejoin="round" fill-opacity="0"></path></g></g><g class="primary design" transform="matrix(1,0,0,1,0,0)" opacity="1" style="display: block;"><g opacity="1" transform="matrix(1,0,0,1,83.37899780273438,249.5)"><g opacity="1" transform="matrix(1,0,0,1,0,0)"><path fill="rgb(0,0,0)" fill-opacity="1" d=" M0,-104.16699981689453 C0,-104.16699981689453 41.66699981689453,-104.16699981689453 41.66699981689453,-104.16699981689453 C41.66699981689453,-104.16699981689453 41.66699981689453,104.16699981689453 41.66699981689453,104.16699981689453 C41.66699981689453,104.16699981689453 0,104.16699981689453 0,104.16699981689453 C-22.91699981689453,104.16699981689453 -41.66699981689453,85.41699981689453 -41.66699981689453,62.5 C-41.66699981689453,62.5 -41.66699981689453,-62.5 -41.66699981689453,-62.5 C-41.66699981689453,-85.41699981689453 -22.91699981689453,-104.16699981689453 0,-104.16699981689453z"></path></g></g><g opacity="1" transform="matrix(1,0,0,1,416.7130126953125,249.5)"><g opacity="1" transform="matrix(1,0,0,1,0,0)"><path fill="rgb(0,0,0)" fill-opacity="1" d=" M41.66699981689453,-62.5 C41.66699981689453,-62.5 41.66699981689453,62.5 41.66699981689453,62.5 C41.66699981689453,85.41699981689453 22.91699981689453,104.16699981689453 0,104.16699981689453 C0,104.16699981689453 -41.66699981689453,104.16699981689453 -41.66699981689453,104.16699981689453 C-41.66699981689453,104.16699981689453 -41.66699981689453,-104.16699981689453 -41.66699981689453,-104.16699981689453 C-41.66699981689453,-104.16699981689453 0,-104.16699981689453 0,-104.16699981689453 C22.91699981689453,-104.16699981689453 41.66699981689453,-85.41699981689453 41.66699981689453,-62.5z"></path></g></g><g opacity="1" transform="matrix(1,0,0,1,250.04600524902344,249.5)"><g opacity="1" transform="matrix(1,0,0,1,0,0)"><path fill="rgb(0,0,0)" fill-opacity="1" d=" M83.33300018310547,-145.83299255371094 C83.33300018310547,-145.83299255371094 83.33300018310547,145.83299255371094 83.33300018310547,145.83299255371094 C83.33300018310547,157.29100036621094 73.95800018310547,166.66700744628906 62.5,166.66700744628906 C62.5,166.66700744628906 -62.5,166.66700744628906 -62.5,166.66700744628906 C-73.95800018310547,166.66700744628906 -83.33300018310547,157.29100036621094 -83.33300018310547,145.83299255371094 C-83.33300018310547,145.83299255371094 -83.33300018310547,-145.83299255371094 -83.33300018310547,-145.83299255371094 C-83.33300018310547,-157.29100036621094 -73.95800018310547,-166.66700744628906 -62.5,-166.66700744628906 C-62.5,-166.66700744628906 62.5,-166.66700744628906 62.5,-166.66700744628906 C73.95800018310547,-166.66700744628906 83.33300018310547,-157.29100036621094 83.33300018310547,-145.83299255371094z"></path></g></g></g><g class="primary design" style="display: none;"><g><g><path></path></g></g><g><g><path></path></g></g><g><g><path></path></g></g></g></g><g clip-path="url(#__lottie_element_2681)" transform="matrix(1,0,0,1,0,0)" opacity="0" style="display: block;"><g class="primary design" style="display: none;"><g><g><path></path></g></g><g><g><path></path></g></g><g><g><path></path></g></g></g></g><g class="com" style="display: none;"><g><path></path></g><g><path></path></g><g><path></path></g><g><path></path></g><g><path></path></g><g><path></path></g><g><path></path></g><g><path></path></g><g><path></path></g><g><path></path></g><g><path></path></g><g><path></path></g></g></g></svg>