<svg xmlns="http://www.w3.org/2000/svg" viewBox="0 0 500 500" width="500" height="500" preserveAspectRatio="xMidYMid meet" style="width: 100%; height: 100%; transform: translate3d(0px, 0px, 0px); content-visibility: visible;"><defs><clipPath id="__lottie_element_2734"><rect width="500" height="500" x="0" y="0"></rect></clipPath><clipPath id="__lottie_element_2741"><path d="M0,0 L500,0 L500,500 L0,500z"></path></clipPath><clipPath id="__lottie_element_2748"><path d="M0,0 L500,0 L500,500 L0,500z"></path></clipPath><clipPath id="__lottie_element_2761"><path d="M0,0 L500,0 L500,500 L0,500z"></path></clipPath><clipPath id="__lottie_element_2771"><path d="M0,0 L500,0 L500,500 L0,500z"></path></clipPath><filter id="__lottie_element_2776" filterUnits="objectBoundingBox" x="0%" y="0%" width="100%" height="100%"><feComponentTransfer in="SourceGraphic"><feFuncA type="table" tableValues="1.0 0.0"></feFuncA></feComponentTransfer></filter><mask id="__lottie_element_2775" mask-type="alpha"><g filter="url(#__lottie_element_2776)"><rect width="500" height="500" x="0" y="0" fill="#ffffff" opacity="0"></rect><g style="display: none;"><g><path></path></g></g></g></mask><clipPath id="__lottie_element_2783"><path d="M0,0 L500,0 L500,500 L0,500z"></path></clipPath><clipPath id="__lottie_element_2793"><path d="M0,0 L500,0 L500,500 L0,500z"></path></clipPath><filter id="__lottie_element_2800" filterUnits="objectBoundingBox" x="0%" y="0%" width="100%" height="100%"><feComponentTransfer in="SourceGraphic"><feFuncA type="table" tableValues="1.0 0.0"></feFuncA></feComponentTransfer></filter><mask id="__lottie_element_2799" mask-type="alpha"><g filter="url(#__lottie_element_2800)"><rect width="500" height="500" x="0" y="0" fill="#ffffff" opacity="0"></rect><g style="display: none;"><g><path></path></g></g></g></mask></defs><g clip-path="url(#__lottie_element_2734)"><g clip-path="url(#__lottie_element_2793)" transform="matrix(1,0,0,1,0,0)" opacity="0" style="display: block;"><g mask="url(#__lottie_element_2799)" style="display: block;"><g transform="matrix(20.829999923706055,0,0,20.829999923706055,249.9980010986328,250.02099609375)" opacity="1"><g opacity="1" transform="matrix(1,0,0,1,0,0)"><path fill="rgb(0,0,0)" fill-opacity="1" d=" M8.142999649047852,-3.7709999084472656 C8.142999649047852,-3.7709999084472656 1.1430000066757202,-8.642000198364258 1.1430000066757202,-8.642000198364258 C0.45899999141693115,-9.118000030517578 -0.45899999141693115,-9.118000030517578 -1.1430000066757202,-8.642000198364258 C-1.1430000066757202,-8.642000198364258 -8.142999649047852,-3.7709999084472656 -8.142999649047852,-3.7709999084472656 C-8.680000305175781,-3.3970000743865967 -9,-2.7829999923706055 -9,-2.128999948501587 C-9,-2.128999948501587 -9,6.999000072479248 -9,6.999000072479248 C-9,8.10200023651123 -8.102999687194824,8.99899959564209 -7,8.99899959564209 C-7,8.99899959564209 -5.014999866485596,8.99899959564209 -5.014999866485596,8.99899959564209 C-3.3610000610351562,8.99899959564209 -2.015000104904175,7.6529998779296875 -2.015000104904175,5.999000072479248 C-2.015000104904175,5.999000072479248 -2.0160000324249268,1.996999979019165 -2.0160000324249268,1.996999979019165 C-2.0160000324249268,1.996999979019165 2.015000104904175,1.996999979019165 2.015000104904175,1.996999979019165 C2.015000104904175,1.996999979019165 2.0160000324249268,5.999000072479248 2.0160000324249268,5.999000072479248 C2.0160000324249268,7.6529998779296875 3.361999988555908,8.99899959564209 5.015999794006348,8.99899959564209 C5.015999794006348,8.99899959564209 7,8.99899959564209 7,8.99899959564209 C8.102999687194824,8.99899959564209 9,8.10200023651123 9,6.999000072479248 C9,6.999000072479248 9,-2.128999948501587 9,-2.128999948501587 C9,-2.7829999923706055 8.680000305175781,-3.3970000743865967 8.142999649047852,-3.7709999084472656z"></path></g></g></g><g class="primary design" style="display: none;"><g><path stroke-linecap="round" stroke-linejoin="round" fill-opacity="0"></path></g></g></g><g clip-path="url(#__lottie_element_2783)" transform="matrix(1,0,0,1,0,0)" opacity="0" style="display: block;"><g class="primary design" transform="matrix(1,0,0,1,250.0030059814453,249.6790008544922)" opacity="1" style="display: block;"><path fill="rgb(0,0,0)" fill-opacity="1" d=" M2.7200000286102295,-165.19900512695312 C2.7200000286102295,-165.19900512695312 2.9549999237060547,-164.88600158691406 2.9549999237060547,-165.2969970703125 C6.9029998779296875,-165.2969970703125 10.923999786376953,-164.17799377441406 14.729999542236328,-161.62399291992188 C20.718000411987305,-157.6060028076172 157.62100219726562,-60.608001708984375 157.62100219726562,-60.608001708984375 C159.80499267578125,-59.3120002746582 166.16000366210938,-54.09199905395508 166.16000366210938,-44.1510009765625 C166.16000366210938,-44.1510009765625 166.14100646972656,145.36000061035156 166.14100646972656,145.36000061035156 C166.14100646972656,156.69200134277344 157.14199829101562,165.2830047607422 146.39999389648438,165.2830047607422 C146.39999389648438,165.2830047607422 146.34300231933594,164.93099975585938 146.34300231933594,164.93099975585938"></path><g opacity="1" transform="matrix(1,0,0,1,0,0)"><path stroke-linecap="round" stroke-linejoin="round" fill-opacity="0" stroke="rgb(0,0,0)" stroke-opacity="1" stroke-width="41" d=" M2.7200000286102295,-165.19900512695312 C2.7200000286102295,-165.19900512695312 2.9549999237060547,-164.88600158691406 2.9549999237060547,-165.2969970703125 C6.9029998779296875,-165.2969970703125 10.923999786376953,-164.17799377441406 14.729999542236328,-161.62399291992188 C20.718000411987305,-157.6060028076172 157.62100219726562,-60.608001708984375 157.62100219726562,-60.608001708984375 C159.80499267578125,-59.3120002746582 166.16000366210938,-54.09199905395508 166.16000366210938,-44.1510009765625 C166.16000366210938,-44.1510009765625 166.14100646972656,145.36000061035156 166.14100646972656,145.36000061035156 C166.14100646972656,156.69200134277344 157.14199829101562,165.2830047607422 146.39999389648438,165.2830047607422 C146.39999389648438,165.2830047607422 146.34300231933594,164.93099975585938 146.34300231933594,164.93099975585938"></path></g></g><g transform="matrix(20.829999923706055,0,0,20.829999923706055,249.9980010986328,250.02099609375)" opacity="1" style="display: block;"><g opacity="1" transform="matrix(1,0,0,1,0,0)"><path fill="rgb(0,0,0)" fill-opacity="1" d=" M8.142999649047852,-3.7709999084472656 C8.142999649047852,-3.7709999084472656 1.1430000066757202,-8.642000198364258 1.1430000066757202,-8.642000198364258 C0.45899999141693115,-9.118000030517578 -0.45899999141693115,-9.118000030517578 -1.1430000066757202,-8.642000198364258 C-1.1430000066757202,-8.642000198364258 -8.142999649047852,-3.7709999084472656 -8.142999649047852,-3.7709999084472656 C-8.680000305175781,-3.3970000743865967 -9,-2.7829999923706055 -9,-2.128999948501587 C-9,-2.128999948501587 -9,6.999000072479248 -9,6.999000072479248 C-9,8.10200023651123 -8.102999687194824,8.99899959564209 -7,8.99899959564209 C-7,8.99899959564209 -5.014999866485596,8.99899959564209 -5.014999866485596,8.99899959564209 C-3.3610000610351562,8.99899959564209 -2.015000104904175,7.6529998779296875 -2.015000104904175,5.999000072479248 C-2.015000104904175,5.999000072479248 -2.0160000324249268,1.996999979019165 -2.0160000324249268,1.996999979019165 C-2.0160000324249268,1.996999979019165 2.015000104904175,1.996999979019165 2.015000104904175,1.996999979019165 C2.015000104904175,1.996999979019165 2.0160000324249268,5.999000072479248 2.0160000324249268,5.999000072479248 C2.0160000324249268,7.6529998779296875 3.361999988555908,8.99899959564209 5.015999794006348,8.99899959564209 C5.015999794006348,8.99899959564209 7,8.99899959564209 7,8.99899959564209 C8.102999687194824,8.99899959564209 9,8.10200023651123 9,6.999000072479248 C9,6.999000072479248 9,-2.128999948501587 9,-2.128999948501587 C9,-2.7829999923706055 8.680000305175781,-3.3970000743865967 8.142999649047852,-3.7709999084472656z"></path></g></g></g><g clip-path="url(#__lottie_element_2771)" transform="matrix(1,0,0,1,0,0)" opacity="1" style="display: block;"><g mask="url(#__lottie_element_2775)" style="display: block;"><g transform="matrix(20.829999923706055,0,0,20.829999923706055,249.9980010986328,250.02099609375)" opacity="1"><g opacity="1" transform="matrix(1,0,0,1,0,0)"><path fill="rgb(0,0,0)" fill-opacity="1" d=" M8.142999649047852,-3.7709999084472656 C8.142999649047852,-3.7709999084472656 1.1430000066757202,-8.642000198364258 1.1430000066757202,-8.642000198364258 C0.45899999141693115,-9.118000030517578 -0.45899999141693115,-9.118000030517578 -1.1430000066757202,-8.642000198364258 C-1.1430000066757202,-8.642000198364258 -8.142999649047852,-3.7709999084472656 -8.142999649047852,-3.7709999084472656 C-8.680000305175781,-3.3970000743865967 -9,-2.7829999923706055 -9,-2.128999948501587 C-9,-2.128999948501587 -9,6.999000072479248 -9,6.999000072479248 C-9,8.10200023651123 -8.102999687194824,8.99899959564209 -7,8.99899959564209 C-7,8.99899959564209 -5.014999866485596,8.99899959564209 -5.014999866485596,8.99899959564209 C-3.3610000610351562,8.99899959564209 -2.015000104904175,7.6529998779296875 -2.015000104904175,5.999000072479248 C-2.015000104904175,5.999000072479248 -2.0160000324249268,1.996999979019165 -2.0160000324249268,1.996999979019165 C-2.0160000324249268,1.996999979019165 2.015000104904175,1.996999979019165 2.015000104904175,1.996999979019165 C2.015000104904175,1.996999979019165 2.0160000324249268,5.999000072479248 2.0160000324249268,5.999000072479248 C2.0160000324249268,7.6529998779296875 3.361999988555908,8.99899959564209 5.015999794006348,8.99899959564209 C5.015999794006348,8.99899959564209 7,8.99899959564209 7,8.99899959564209 C8.102999687194824,8.99899959564209 9,8.10200023651123 9,6.999000072479248 C9,6.999000072479248 9,-2.128999948501587 9,-2.128999948501587 C9,-2.7829999923706055 8.680000305175781,-3.3970000743865967 8.142999649047852,-3.7709999084472656z"></path></g></g></g></g><g clip-path="url(#__lottie_element_2761)" transform="matrix(1,0,0,1,0,0)" opacity="0" style="display: block;"><g class="primary design" style="display: none;"><g><path stroke-linecap="round" stroke-linejoin="round" fill-opacity="0"></path></g></g><g transform="matrix(20.829999923706055,0,0,20.829999923706055,249.9980010986328,250.02099609375)" opacity="1" style="display: block;"><g opacity="1" transform="matrix(1,0,0,1,0,0)"><path fill="rgb(0,0,0)" fill-opacity="1" d=" M8.142999649047852,-3.7709999084472656 C8.142999649047852,-3.7709999084472656 1.1430000066757202,-8.642000198364258 1.1430000066757202,-8.642000198364258 C0.45899999141693115,-9.118000030517578 -0.45899999141693115,-9.118000030517578 -1.1430000066757202,-8.642000198364258 C-1.1430000066757202,-8.642000198364258 -8.142999649047852,-3.7709999084472656 -8.142999649047852,-3.7709999084472656 C-8.680000305175781,-3.3970000743865967 -9,-2.7829999923706055 -9,-2.128999948501587 C-9,-2.128999948501587 -9,6.999000072479248 -9,6.999000072479248 C-9,8.10200023651123 -8.102999687194824,8.99899959564209 -7,8.99899959564209 C-7,8.99899959564209 -5.014999866485596,8.99899959564209 -5.014999866485596,8.99899959564209 C-3.3610000610351562,8.99899959564209 -2.015000104904175,7.6529998779296875 -2.015000104904175,5.999000072479248 C-2.015000104904175,5.999000072479248 -2.0160000324249268,1.996999979019165 -2.0160000324249268,1.996999979019165 C-2.0160000324249268,1.996999979019165 2.015000104904175,1.996999979019165 2.015000104904175,1.996999979019165 C2.015000104904175,1.996999979019165 2.0160000324249268,5.999000072479248 2.0160000324249268,5.999000072479248 C2.0160000324249268,7.6529998779296875 3.361999988555908,8.99899959564209 5.015999794006348,8.99899959564209 C5.015999794006348,8.99899959564209 7,8.99899959564209 7,8.99899959564209 C8.102999687194824,8.99899959564209 9,8.10200023651123 9,6.999000072479248 C9,6.999000072479248 9,-2.128999948501587 9,-2.128999948501587 C9,-2.7829999923706055 8.680000305175781,-3.3970000743865967 8.142999649047852,-3.7709999084472656z"></path></g></g></g><g clip-path="url(#__lottie_element_2748)" transform="matrix(1,0,0,1,0,0)" opacity="0" style="display: block;"><g class="primary design" style="display: none;"><path></path><g><path stroke-linecap="round" stroke-linejoin="round" fill-opacity="0"></path></g></g><g transform="matrix(20.829999923706055,0,0,20.829999923706055,249.9980010986328,250.02099609375)" opacity="1" style="display: block;"><g opacity="1" transform="matrix(1,0,0,1,0,0)"><path fill="rgb(0,0,0)" fill-opacity="1" d=" M8.142999649047852,-3.7709999084472656 C8.142999649047852,-3.7709999084472656 1.1430000066757202,-8.642000198364258 1.1430000066757202,-8.642000198364258 C0.45899999141693115,-9.118000030517578 -0.45899999141693115,-9.118000030517578 -1.1430000066757202,-8.642000198364258 C-1.1430000066757202,-8.642000198364258 -8.142999649047852,-3.7709999084472656 -8.142999649047852,-3.7709999084472656 C-8.680000305175781,-3.3970000743865967 -9,-2.7829999923706055 -9,-2.128999948501587 C-9,-2.128999948501587 -9,6.999000072479248 -9,6.999000072479248 C-9,8.10200023651123 -8.102999687194824,8.99899959564209 -7,8.99899959564209 C-7,8.99899959564209 -5.014999866485596,8.99899959564209 -5.014999866485596,8.99899959564209 C-3.3610000610351562,8.99899959564209 -2.015000104904175,7.6529998779296875 -2.015000104904175,5.999000072479248 C-2.015000104904175,5.999000072479248 -2.0160000324249268,1.996999979019165 -2.0160000324249268,1.996999979019165 C-2.0160000324249268,1.996999979019165 -0.0989999994635582,1.996999979019165 -0.0989999994635582,1.996999979019165 C-0.0989999994635582,1.996999979019165 2.015000104904175,1.996999979019165 2.015000104904175,1.996999979019165 C2.015000104904175,1.996999979019165 2.0160000324249268,5.999000072479248 2.0160000324249268,5.999000072479248 C2.0160000324249268,7.6529998779296875 3.361999988555908,8.99899959564209 5.015999794006348,8.99899959564209 C5.015999794006348,8.99899959564209 7,8.99899959564209 7,8.99899959564209 C8.102999687194824,8.99899959564209 9,8.10200023651123 9,6.999000072479248 C9,6.999000072479248 9,-2.128999948501587 9,-2.128999948501587 C9,-2.7829999923706055 8.680000305175781,-3.3970000743865967 8.142999649047852,-3.7709999084472656z"></path></g></g><g style="display: none;"><g><path></path></g></g></g><g clip-path="url(#__lottie_element_2741)" transform="matrix(1,0,0,1,0,0)" opacity="0" style="display: block;"><g style="display: none;"><g><path></path></g></g></g><g style="display: none;"><path></path></g></g></svg>