<svg xmlns="http://www.w3.org/2000/svg" viewBox="0 0 500 500" width="500" height="500" preserveAspectRatio="xMidYMid meet" style="width: 100%; height: 100%; transform: translate3d(0px, 0px, 0px); content-visibility: visible;"><defs><clipPath id="__lottie_element_2807"><rect width="500" height="500" x="0" y="0"></rect></clipPath><clipPath id="__lottie_element_2814"><path d="M0,0 L500,0 L500,500 L0,500z"></path></clipPath><clipPath id="__lottie_element_2827"><path d="M0,0 L500,0 L500,500 L0,500z"></path></clipPath></defs><g clip-path="url(#__lottie_element_2807)"><g clip-path="url(#__lottie_element_2827)" transform="matrix(1,0,0,1,0,0)" opacity="1" style="display: block;"><g class="primary design" style="display: none;"><g><path stroke-linecap="round" stroke-linejoin="round" fill-opacity="0"></path></g></g><g class="primary design" style="display: none;"><g><path></path><path stroke-linecap="round" stroke-linejoin="round" fill-opacity="0"></path></g></g><g class="primary design" transform="matrix(20.829999923706055,0,0,20.829999923706055,250,250)" opacity="1" style="display: block;"><g opacity="1" transform="matrix(1,0,0,1,0,0)"><path fill="rgb(0,0,0)" fill-opacity="1" d=" M8.508000373840332,7.0920000076293945 C8.508000373840332,7.0920000076293945 4.883999824523926,3.4679999351501465 4.883999824523926,3.4679999351501465 C5.89300012588501,2.1600000858306885 6.5,0.5260000228881836 6.5,-1.2480000257492065 C6.5,-5.5279998779296875 3.0199999809265137,-8.998000144958496 -1.25,-8.998000144958496 C-5.519999980926514,-8.998000144958496 -9,-5.5279998779296875 -9,-1.2480000257492065 C-9,3.0220000743865967 -5.519999980926514,6.501999855041504 -1.25,6.501999855041504 C0.5270000100135803,6.501999855041504 2.1619999408721924,5.89300012588501 3.4709999561309814,4.881999969482422 C3.4709999561309814,4.881999969482422 7.093999862670898,8.505999565124512 7.093999862670898,8.505999565124512 C7.289000034332275,8.701000213623047 7.545000076293945,8.798999786376953 7.801000118255615,8.798999786376953 C8.057000160217285,8.798999786376953 8.312999725341797,8.701000213623047 8.508000373840332,8.505999565124512 C8.89900016784668,8.114999771118164 8.89900016784668,7.482999801635742 8.508000373840332,7.0920000076293945z M-1.25,-6.998000144958496 C1.9199999570846558,-6.998000144958496 4.5,-4.418000221252441 4.5,-1.2480000257492065 C4.5,1.9220000505447388 1.9199999570846558,4.501999855041504 -1.25,4.501999855041504 C-4.420000076293945,4.501999855041504 -7,1.9220000505447388 -7,-1.2480000257492065 C-7,-4.418000221252441 -4.420000076293945,-6.998000144958496 -1.25,-6.998000144958496z"></path></g></g><g class="primary design" style="display: none;"><g><path></path></g></g></g><g clip-path="url(#__lottie_element_2814)" transform="matrix(1,0,0,1,0,0)" opacity="0" style="display: block;"><g class="primary design" style="display: none;"><g><path stroke-linecap="round" stroke-linejoin="round" fill-opacity="0"></path></g></g><g class="primary design" style="display: none;"><g><path></path><path stroke-linecap="round" stroke-linejoin="round" fill-opacity="0"></path></g></g><g class="primary design" style="display: none;"><g><path></path></g></g></g><g class="com" style="display: none;"><g><path></path></g><g><path></path></g><g><path></path></g><g><path></path></g><g><path></path></g><g><path></path></g><g><path></path></g><g><path></path></g><g><path></path></g><g><path></path></g><g><path></path></g><g><path></path></g></g></g></svg>