<svg xmlns="http://www.w3.org/2000/svg" viewBox="0 0 500 500" width="500" height="500" preserveAspectRatio="xMidYMid meet" style="width: 100%; height: 100%; transform: translate3d(0px, 0px, 0px); content-visibility: visible;"><defs><clipPath id="__lottie_element_2843"><rect width="500" height="500" x="0" y="0"></rect></clipPath><clipPath id="__lottie_element_2850"><path d="M0,0 L500,0 L500,500 L0,500z"></path></clipPath><mask id="__lottie_element_2862" mask-type="alpha"><g class="primary design" style="display: none;"><g><path></path></g></g></mask><clipPath id="__lottie_element_2869"><path d="M0,0 L500,0 L500,500 L0,500z"></path></clipPath></defs><g clip-path="url(#__lottie_element_2843)"><g clip-path="url(#__lottie_element_2869)" transform="matrix(1,0,0,1,0,0)" opacity="1" style="display: block;"><g class="primary design" style="display: none;"><g><path stroke-linecap="round" stroke-linejoin="round" fill-opacity="0"></path></g></g><g class="primary design" style="display: none;"><g><path stroke-linecap="round" stroke-linejoin="round" fill-opacity="0"></path><path></path></g><g><path stroke-linecap="round" stroke-linejoin="round" fill-opacity="0"></path><path></path></g></g><g class="primary design" style="display: none;"><path></path><g><path stroke-linecap="round" stroke-linejoin="round" fill-opacity="0"></path></g></g><g class="primary design" transform="matrix(1,0,0,1,250,250)" opacity="1" style="display: block;"><g opacity="1" transform="matrix(1,0,0,1,0,0)"><path fill="rgb(0,0,0)" fill-opacity="1" d=" M166.71299743652344,-166.66700744628906 C166.71299743652344,-166.66700744628906 -166.62100219726562,-166.66700744628906 -166.62100219726562,-166.66700744628906 C-189.53700256347656,-166.66700744628906 -208.28700256347656,-147.91600036621094 -208.28700256347656,-125 C-208.28700256347656,-125 -208.28700256347656,125 -208.28700256347656,125 C-208.28700256347656,147.91600036621094 -189.53700256347656,166.66700744628906 -166.62100219726562,166.66700744628906 C-166.62100219726562,166.66700744628906 166.71299743652344,166.66700744628906 166.71299743652344,166.66700744628906 C189.62899780273438,166.66700744628906 208.37899780273438,147.91600036621094 208.37899780273438,125 C208.37899780273438,125 208.37899780273438,-125 208.37899780273438,-125 C208.37899780273438,-147.91600036621094 189.62899780273438,-166.66700744628906 166.71299743652344,-166.66700744628906z M166.71299743652344,-125 C166.71299743652344,-125 166.71299743652344,69.82499694824219 166.71299743652344,69.82499694824219 C166.71299743652344,69.82499694824219 111.9209976196289,-11.666999816894531 111.9209976196289,-11.666999816894531 C107.96299743652344,-17.29199981689453 101.50399780273438,-20.83300018310547 94.62899780273438,-20.83300018310547 C94.62899780273438,-20.83300018310547 94.62899780273438,-20.83300018310547 94.4219970703125,-20.83300018310547 C87.5469970703125,-20.83300018310547 81.08799743652344,-17.29199981689453 77.12999725341797,-11.458000183105469 C77.12999725341797,-11.458000183105469 39.36899948120117,46.31800079345703 39.36899948120117,46.31800079345703 C39.36899948120117,46.31800079345703 -34.33000183105469,-73.33399963378906 -34.33000183105469,-73.33399963378906 C-38.08000183105469,-79.58399963378906 -44.74599838256836,-83.33300018310547 -51.82899856567383,-83.33300018310547 C-51.82899856567383,-83.33300018310547 -52.0369987487793,-83.33300018310547 -52.0369987487793,-83.33300018310547 C-59.12099838256836,-83.33300018310547 -65.78700256347656,-79.79199981689453 -69.53800201416016,-73.75 C-69.53800201416016,-73.75 -166.62100219726562,78.21900177001953 -166.62100219726562,78.21900177001953 C-166.62100219726562,78.21900177001953 -166.62100219726562,-125 -166.62100219726562,-125 C-166.62100219726562,-125 166.71299743652344,-125 166.71299743652344,-125z"></path></g></g><g class="primary design" style="display: none;"><g><path></path></g></g></g><g clip-path="url(#__lottie_element_2850)" transform="matrix(1,0,0,1,0,0)" opacity="0" style="display: block;"><g class="primary design" style="display: none;"><g><path stroke-linecap="round" stroke-linejoin="round" fill-opacity="0"></path></g></g><g mask="url(#__lottie_element_2862)" style="display: none;"><g class="primary design"><path></path><g><path stroke-linecap="round" stroke-linejoin="round" fill-opacity="0"></path></g><g><path stroke-linecap="round" stroke-linejoin="round" fill-opacity="0"></path></g></g></g><g class="primary design" style="display: none;"><g><path stroke-linecap="butt" stroke-linejoin="miter" fill-opacity="0" stroke-miterlimit="4"></path></g></g><g class="primary design" style="display: none;"><g><path></path></g></g></g><g class="com" style="display: none;"><g><path></path></g><g><path></path></g><g><path></path></g><g><path></path></g><g><path></path></g><g><path></path></g><g><path></path></g><g><path></path></g><g><path></path></g><g><path></path></g><g><path></path></g><g><path></path></g></g></g></svg>