<svg xmlns="http://www.w3.org/2000/svg" viewBox="0 0 500 500" width="500" height="500" preserveAspectRatio="xMidYMid meet" style="width: 100%; height: 100%; transform: translate3d(0px, 0px, 0px); content-visibility: visible;"><defs><clipPath id="__lottie_element_3388"><rect width="500" height="500" x="0" y="0"></rect></clipPath><clipPath id="__lottie_element_3395"><path d="M0,0 L500,0 L500,500 L0,500z"></path></clipPath><mask id="__lottie_element_3407" mask-type="alpha"><g class="primary design" style="display: none;"><g><path></path></g></g></mask><clipPath id="__lottie_element_3414"><path d="M0,0 L500,0 L500,500 L0,500z"></path></clipPath><mask id="__lottie_element_3429" mask-type="alpha"><g class="primary design" style="display: none;"><g><path></path></g></g></mask></defs><g clip-path="url(#__lottie_element_3388)"><g clip-path="url(#__lottie_element_3414)" transform="matrix(1,0,0,1,0,0)" opacity="1" style="display: block;"><g mask="url(#__lottie_element_3429)" style="display: none;"><g class="primary design"><path></path><g><path stroke-linecap="round" stroke-linejoin="round" fill-opacity="0"></path></g><g><path stroke-linecap="round" stroke-linejoin="round" fill-opacity="0"></path></g></g></g><g class="primary design" style="display: none;"><g><path stroke-linecap="round" stroke-linejoin="round" fill-opacity="0"></path></g></g><g class="primary design" style="display: none;"><g><path stroke-linecap="round" stroke-linejoin="round" fill-opacity="0"></path><path></path></g></g><g class="primary design" style="display: none;"><g><path></path></g><g><path></path></g></g><g class="primary design" transform="matrix(20.829999923706055,0,0,20.829999923706055,-4957.501953125,-4957.4990234375)" opacity="1" style="display: block;"><g opacity="1" transform="matrix(1,0,0,1,250,250)"><path fill="rgb(0,0,0)" fill-opacity="1" d=" M9.996999740600586,-0.24199999868869781 C9.866000175476074,-5.681000232696533 5.415999889373779,-10 0.004999999888241291,-10 C-0.07699999958276749,-10 -0.1599999964237213,-9.99899959564209 -0.24199999868869781,-9.996999740600586 C-5.763000011444092,-9.86400032043457 -10.130999565124512,-5.2789998054504395 -9.996999740600586,0.24199999868869781 C-9.932000160217285,2.930000066757202 -8.8100004196167,5.341000080108643 -7.040999889373779,7.0960001945495605 C-7.041999816894531,7.098999977111816 -7.041999816894531,7.10099983215332 -7.043000221252441,7.104000091552734 C-7.02400016784668,7.122000217437744 -7.002999782562256,7.138000011444092 -6.984000205993652,7.156000137329102 C-6.941999912261963,7.197000026702881 -6.895999908447266,7.23199987411499 -6.854000091552734,7.271999835968018 C-6.677999973297119,7.435999870300293 -6.501999855041504,7.60099983215332 -6.315000057220459,7.751999855041504 C-6.309000015258789,7.756999969482422 -6.302999973297119,7.76200008392334 -6.296999931335449,7.767000198364258 C-5.535999774932861,8.383999824523926 -4.684000015258789,8.890000343322754 -3.7639999389648438,9.263999938964844 C-3.7109999656677246,9.28499984741211 -3.6559998989105225,9.300999641418457 -3.6029999256134033,9.321999549865723 C-3.4000000953674316,9.399999618530273 -3.197000026702881,9.477999687194824 -2.98799991607666,9.543000221252441 C-2.9749999046325684,9.54699993133545 -2.9630000591278076,9.552000045776367 -2.950000047683716,9.555999755859375 C-2.9170000553131104,9.565999984741211 -2.884000062942505,9.574000358581543 -2.8510000705718994,9.583999633789062 C-2.7309999465942383,9.619999885559082 -2.6070001125335693,9.645999908447266 -2.484999895095825,9.677000045776367 C-2.421999931335449,9.692999839782715 -2.3589999675750732,9.708999633789062 -2.2960000038146973,9.723999977111816 C-2.194000005722046,9.748000144958496 -2.0950000286102295,9.779999732971191 -1.9919999837875366,9.800999641418457 C-1.9620000123977661,9.807000160217285 -1.930999994277954,9.8100004196167 -1.9010000228881836,9.815999984741211 C-1.753999948501587,9.843999862670898 -1.6050000190734863,9.861000061035156 -1.4559999704360962,9.883000373840332 C-1.3070000410079956,9.904999732971191 -1.1610000133514404,9.9350004196167 -1.0099999904632568,9.949999809265137 C-0.9769999980926514,9.95300006866455 -0.9430000185966492,9.95199966430664 -0.9100000262260437,9.954999923706055 C-0.7549999952316284,9.968999862670898 -0.597000002861023,9.972000122070312 -0.4399999976158142,9.979000091552734 C-0.29899999499320984,9.984999656677246 -0.16099999845027924,10 -0.01899999938905239,10 C-0.01600000075995922,10 -0.013000000268220901,10 -0.009999999776482582,10 C-0.00800000037997961,10 -0.007000000216066837,10 -0.004999999888241291,10 C0.07699999958276749,10 0.1599999964237213,9.99899959564209 0.24199999868869781,9.996999740600586 C2.2179999351501465,9.949000358581543 4.039999961853027,9.324000358581543 5.566999912261963,8.29699993133545 C5.580999851226807,8.286999702453613 5.5970001220703125,8.279000282287598 5.611000061035156,8.269000053405762 C5.824999809265137,8.123000144958496 6.03000020980835,7.9679999351501465 6.23199987411499,7.807000160217285 C6.283999919891357,7.765999794006348 6.336999893188477,7.72599983215332 6.388000011444092,7.684000015258789 C6.546999931335449,7.552000045776367 6.698999881744385,7.413000106811523 6.848999977111816,7.270999908447266 C6.909999847412109,7.214000225067139 6.974999904632568,7.1620001792907715 7.034999847412109,7.104000091552734 C7.033999919891357,7.10099983215332 7.033999919891357,7.0980000495910645 7.0329999923706055,7.09499979019165 C8.918000221252441,5.22599983215332 10.065999984741211,2.621000051498413 9.996999740600586,-0.24199999868869781z M2.1489999294281006,3 C2.1489999294281006,3 -2.1570000648498535,3 -2.1570000648498535,3 C-3.7990000247955322,3 -5.24399995803833,3.825000047683716 -6.151000022888184,5.080999851226807 C-7.26200008392334,3.742000102996826 -7.953000068664551,2.0429999828338623 -7.998000144958496,0.19300000369548798 C-8.050000190734863,-1.9429999589920044 -7.265999794006348,-3.9709999561309814 -5.791999816894531,-5.51800012588501 C-4.317999839782715,-7.065000057220459 -2.3289999961853027,-7.946000099182129 -0.19300000369548798,-7.998000144958496 C-0.19300000369548798,-7.998000144958496 0.004999999888241291,-8 0.004999999888241291,-8 C4.308000087738037,-8 7.894000053405762,-4.498000144958496 7.998000144958496,-0.19300000369548798 C8.045000076293945,1.7569999694824219 7.388999938964844,3.611999988555908 6.15500020980835,5.0980000495910645 C5.248000144958496,3.8329999446868896 3.7990000247955322,3 2.1489999294281006,3z"></path></g><g opacity="1" transform="matrix(1,0,0,1,250,247.5)"><path fill="rgb(0,0,0)" fill-opacity="1" d=" M0.4790000021457672,-3.5 C0.4790000021457672,-3.5 -0.47999998927116394,-3.5 -0.47999998927116394,-3.5 C-1.871999979019165,-3.5 -3,-2.371000051498413 -3,-0.9789999723434448 C-3,-0.9789999723434448 -3,0.9789999723434448 -3,0.9789999723434448 C-3,2.371000051498413 -1.871999979019165,3.5 -0.47999998927116394,3.5 C-0.47999998927116394,3.5 2.0199999809265137,3.5 2.0199999809265137,3.5 C2.561000108718872,3.5 3,3.061000108718872 3,2.5199999809265137 C3,2.5199999809265137 3,-0.9789999723434448 3,-0.9789999723434448 C3,-2.371000051498413 1.871000051498413,-3.5 0.4790000021457672,-3.5z"></path></g></g></g><g clip-path="url(#__lottie_element_3395)" transform="matrix(1,0,0,1,0,0)" opacity="0" style="display: block;"><g mask="url(#__lottie_element_3407)" style="display: none;"><g class="primary design"><g><path stroke-linecap="round" stroke-linejoin="round" fill-opacity="0"></path><path></path></g><g><path stroke-linecap="round" stroke-linejoin="round" fill-opacity="0"></path><path></path></g></g></g><g class="primary design" style="display: none;"><g><path stroke-linecap="round" stroke-linejoin="round" fill-opacity="0"></path></g></g><g class="primary design" style="display: none;"><g><path stroke-linecap="round" stroke-linejoin="round" fill-opacity="0"></path><path></path></g></g><g class="primary design" style="display: none;"><g><path></path></g><g><path></path></g></g></g><g class="com" style="display: none;"><g><path></path></g><g><path></path></g><g><path></path></g><g><path></path></g><g><path></path></g><g><path></path></g><g><path></path></g><g><path></path></g><g><path></path></g><g><path></path></g><g><path></path></g><g><path></path></g></g></g></svg>