<svg xmlns="http://www.w3.org/2000/svg" viewBox="0 0 500 500" width="500" height="500" preserveAspectRatio="xMidYMid meet" style="width: 100%; height: 100%; transform: translate3d(0px, 0px, 0px); content-visibility: visible;"><defs><clipPath id="__lottie_element_2888"><rect width="500" height="500" x="0" y="0"></rect></clipPath><clipPath id="__lottie_element_2895"><path d="M0,0 L500,0 L500,500 L0,500z"></path></clipPath><clipPath id="__lottie_element_2908"><path d="M0,0 L500,0 L500,500 L0,500z"></path></clipPath><filter id="__lottie_element_2936" filterUnits="objectBoundingBox" x="0%" y="0%" width="100%" height="100%"><feComponentTransfer in="SourceGraphic"><feFuncA type="table" tableValues="1.0 0.0"></feFuncA></feComponentTransfer></filter><mask id="__lottie_element_2935" mask-type="alpha"><g filter="url(#__lottie_element_2936)"><rect width="500" height="500" x="0" y="0" fill="#ffffff" opacity="0"></rect><g style="display: none;"><g><path></path><path stroke-linecap="butt" stroke-linejoin="miter" fill-opacity="0" stroke-miterlimit="4"></path></g></g></g></mask><clipPath id="__lottie_element_2940"><path d="M0,0 L500,0 L500,500 L0,500z"></path></clipPath><clipPath id="__lottie_element_2968"><path d="M0,0 L500,0 L500,500 L0,500z"></path></clipPath><clipPath id="__lottie_element_2996"><path d="M0,0 L500,0 L500,500 L0,500z"></path></clipPath><filter id="__lottie_element_3006" filterUnits="objectBoundingBox" x="0%" y="0%" width="100%" height="100%"><feComponentTransfer in="SourceGraphic"><feFuncA type="table" tableValues="1.0 0.0"></feFuncA></feComponentTransfer></filter><mask id="__lottie_element_3005" mask-type="alpha"><g filter="url(#__lottie_element_3006)"><rect width="500" height="500" x="0" y="0" fill="#ffffff" opacity="0"></rect><g style="display: none;"><g><path></path><path stroke-linecap="butt" stroke-linejoin="miter" fill-opacity="0" stroke-miterlimit="4"></path></g></g></g></mask><clipPath id="__lottie_element_3010"><path d="M0,0 L500,0 L500,500 L0,500z"></path></clipPath><clipPath id="__lottie_element_3038"><path d="M0,0 L500,0 L500,500 L0,500z"></path></clipPath><filter id="__lottie_element_3066" filterUnits="objectBoundingBox" x="0%" y="0%" width="100%" height="100%"><feComponentTransfer in="SourceGraphic"><feFuncA type="table" tableValues="1.0 0.0"></feFuncA></feComponentTransfer></filter><mask id="__lottie_element_3065" mask-type="alpha"><g filter="url(#__lottie_element_3066)"><rect width="500" height="500" x="0" y="0" fill="#ffffff" opacity="0"></rect><g style="display: none;"><g><path></path><path stroke-linecap="butt" stroke-linejoin="miter" fill-opacity="0" stroke-miterlimit="4"></path></g></g></g></mask><clipPath id="__lottie_element_3070"><path d="M0,0 L500,0 L500,500 L0,500z"></path></clipPath><clipPath id="__lottie_element_3098"><path d="M0,0 L500,0 L500,500 L0,500z"></path></clipPath><clipPath id="__lottie_element_3129"><path d="M0,0 L500,0 L500,500 L0,500z"></path></clipPath><clipPath id="__lottie_element_3142"><path d="M0,0 L500,0 L500,500 L0,500z"></path></clipPath><clipPath id="__lottie_element_3170"><path d="M0,0 L500,0 L500,500 L0,500z"></path></clipPath><clipPath id="__lottie_element_3198"><path d="M0,0 L500,0 L500,500 L0,500z"></path></clipPath><filter id="__lottie_element_3208" filterUnits="objectBoundingBox" x="0%" y="0%" width="100%" height="100%"><feComponentTransfer in="SourceGraphic"><feFuncA type="table" tableValues="1.0 0.0"></feFuncA></feComponentTransfer></filter><mask id="__lottie_element_3207" mask-type="alpha"><g filter="url(#__lottie_element_3208)"><rect width="500" height="500" x="0" y="0" fill="#ffffff" opacity="0"></rect><g style="display: none;"><g><path></path><path stroke-linecap="butt" stroke-linejoin="miter" fill-opacity="0" stroke-miterlimit="4"></path></g></g></g></mask><clipPath id="__lottie_element_3212"><path d="M0,0 L500,0 L500,500 L0,500z"></path></clipPath><clipPath id="__lottie_element_3240"><path d="M0,0 L500,0 L500,500 L0,500z"></path></clipPath><filter id="__lottie_element_3268" filterUnits="objectBoundingBox" x="0%" y="0%" width="100%" height="100%"><feComponentTransfer in="SourceGraphic"><feFuncA type="table" tableValues="1.0 0.0"></feFuncA></feComponentTransfer></filter><mask id="__lottie_element_3267" mask-type="alpha"><g filter="url(#__lottie_element_3268)"><rect width="500" height="500" x="0" y="0" fill="#ffffff" opacity="0"></rect><g style="display: none;"><g><path></path><path stroke-linecap="butt" stroke-linejoin="miter" fill-opacity="0" stroke-miterlimit="4"></path></g></g></g></mask><clipPath id="__lottie_element_3272"><path d="M0,0 L500,0 L500,500 L0,500z"></path></clipPath><clipPath id="__lottie_element_3300"><path d="M0,0 L500,0 L500,500 L0,500z"></path></clipPath></defs><g clip-path="url(#__lottie_element_2888)"><g clip-path="url(#__lottie_element_3198)" transform="matrix(1,0,0,1,0,0)" opacity="0" style="display: block;"><g style="display: none;"><g><path></path></g></g><g clip-path="url(#__lottie_element_3300)" style="display: none;"><g style="display: none;"><g><g><path></path></g></g></g><g style="display: none;"><g><path stroke-linecap="round" stroke-linejoin="round" fill-opacity="0"></path></g></g><g style="display: none;"><g><path stroke-linecap="round" stroke-linejoin="round" fill-opacity="0"></path></g></g><g style="display: none;"><g><path></path></g></g><g style="display: none;"><g><path></path></g></g><g style="display: none;"><g><path stroke-linecap="round" stroke-linejoin="round" fill-opacity="0"></path></g></g><g style="display: none;"><g><path stroke-linecap="round" stroke-linejoin="round" fill-opacity="0"></path></g></g><g style="display: none;"><g><path stroke-linecap="round" stroke-linejoin="round" fill-opacity="0"></path></g></g></g><g mask="url(#__lottie_element_3267)" style="display: none;"><g clip-path="url(#__lottie_element_3272)"><g style="display: none;"><g><g><path></path></g></g></g><g style="display: none;"><g><path stroke-linecap="round" stroke-linejoin="round" fill-opacity="0"></path></g></g><g style="display: none;"><g><path stroke-linecap="round" stroke-linejoin="round" fill-opacity="0"></path></g></g><g style="display: none;"><g><path></path></g></g><g style="display: none;"><g><path></path></g></g><g style="display: none;"><g><path stroke-linecap="round" stroke-linejoin="round" fill-opacity="0"></path></g></g><g style="display: none;"><g><path stroke-linecap="round" stroke-linejoin="round" fill-opacity="0"></path></g></g><g style="display: none;"><g><path stroke-linecap="round" stroke-linejoin="round" fill-opacity="0"></path></g></g></g></g><g clip-path="url(#__lottie_element_3240)" style="display: none;"><g style="display: none;"><g><g><path></path></g></g></g><g style="display: none;"><g><path stroke-linecap="round" stroke-linejoin="round" fill-opacity="0"></path></g></g><g style="display: none;"><g><path stroke-linecap="round" stroke-linejoin="round" fill-opacity="0"></path></g></g><g style="display: none;"><g><path></path></g></g><g style="display: none;"><g><path></path></g></g><g style="display: none;"><g><path stroke-linecap="round" stroke-linejoin="round" fill-opacity="0"></path></g></g><g style="display: none;"><g><path stroke-linecap="round" stroke-linejoin="round" fill-opacity="0"></path></g></g><g style="display: none;"><g><path stroke-linecap="round" stroke-linejoin="round" fill-opacity="0"></path></g></g></g><g mask="url(#__lottie_element_3207)" style="display: none;"><g clip-path="url(#__lottie_element_3212)"><g style="display: none;"><g><g><path></path></g></g></g><g style="display: none;"><g><path stroke-linecap="round" stroke-linejoin="round" fill-opacity="0"></path></g></g><g style="display: none;"><g><path stroke-linecap="round" stroke-linejoin="round" fill-opacity="0"></path></g></g><g style="display: none;"><g><path></path></g></g><g style="display: none;"><g><path></path></g></g><g style="display: none;"><g><path stroke-linecap="round" stroke-linejoin="round" fill-opacity="0"></path></g></g><g style="display: none;"><g><path stroke-linecap="round" stroke-linejoin="round" fill-opacity="0"></path></g></g><g style="display: none;"><g><path stroke-linecap="round" stroke-linejoin="round" fill-opacity="0"></path></g></g></g></g><g transform="matrix(1,0,0,1,0,0)" opacity="1" style="display: block;"><g opacity="1" transform="matrix(1,0,0,1,291.7130126953125,250)"><path fill="rgb(0,0,0)" fill-opacity="1" d=" M84.375,208.33299255371094 C84.375,208.33299255371094 41.66699981689453,208.33299255371094 41.66699981689453,208.33299255371094 C30.208999633789062,208.33299255371094 20.83300018310547,198.95799255371094 20.83300018310547,187.5 C20.83300018310547,176.04200744628906 30.208999633789062,166.66700744628906 41.66699981689453,166.66700744628906 C41.66699981689453,166.66700744628906 84.375,166.66700744628906 84.375,166.66700744628906 C84.375,166.66700744628906 83.33300018310547,-167.29200744628906 83.33300018310547,-167.29200744628906 C83.33300018310547,-167.29200744628906 -84.375,-166.66700744628906 -84.375,-166.66700744628906 C-84.375,-166.66700744628906 -83.33300018310547,-125 -83.33300018310547,-125 C-83.33300018310547,-113.54199981689453 -92.70899963378906,-104.16699981689453 -104.16699981689453,-104.16699981689453 C-115.625,-104.16699981689453 -125,-113.54199981689453 -125,-125 C-125,-125 -125,-167.29200744628906 -125,-167.29200744628906 C-125,-189.79200744628906 -106.66699981689453,-208.33299255371094 -84.375,-208.33299255371094 C-84.375,-208.33299255371094 84.375,-208.33299255371094 84.375,-208.33299255371094 C106.66699981689453,-208.33299255371094 125,-189.79200744628906 125,-167.29200744628906 C125,-167.29200744628906 125,167.08299255371094 125,167.08299255371094 C125,190 106.66699981689453,208.33299255371094 84.375,208.33299255371094z"></path></g><g opacity="1" transform="matrix(1,0,0,1,0,0)"><g opacity="1" transform="matrix(1,0,0,1,304.7909851074219,145.83299255371094)"><g opacity="1" transform="matrix(1,0,0,1,0,0)"><path fill="rgb(0,0,0)" fill-opacity="1" d=" M29.83799934387207,5.833000183105469 C29.83799934387207,5.833000183105469 14.838000297546387,31.66699981689453 14.838000297546387,31.66699981689453 C11.920999526977539,36.45899963378906 6.921000003814697,39.16699981689453 1.7130000591278076,39.16699981689453 C-0.7870000004768372,39.16699981689453 -3.2869999408721924,38.54100036621094 -5.7870001792907715,37.08300018310547 C-5.7870001792907715,37.08300018310547 -18.70400047302246,29.58300018310547 -18.70400047302246,29.58300018310547 C-33.07899856567383,21.25 -38.077999114990234,2.9170000553131104 -29.7450008392334,-11.25 C-29.7450008392334,-11.25 -22.2450008392334,-24.16699981689453 -22.2450008392334,-24.16699981689453 C-16.6200008392334,-33.95899963378906 -6.4120001792907715,-39.16699981689453 3.7960000038146973,-39.16699981689453 C8.795999526977539,-39.16699981689453 14.213000297546387,-38.125 18.79599952697754,-35.20800018310547 C33.17100143432617,-27.08300018310547 37.9630012512207,-8.541999816894531 29.83799934387207,5.833000183105469z"></path></g></g></g><g opacity="1" transform="matrix(1,0,0,1,208.38299560546875,322.9169921875)"><path fill="rgb(0,0,0)" fill-opacity="1" d=" M145.8300018310547,-10.416999816894531 C145.8300018310547,1.0410000085830688 136.4550018310547,10.416999816894531 124.99700164794922,10.416999816894531 C124.99700164794922,10.416999816894531 82.28800201416016,10.416999816894531 82.28800201416016,10.416999816894531 C70.83000183105469,10.416999816894531 61.45500183105469,1.0410000085830688 61.45500183105469,-10.416999816894531 C61.45500183105469,-10.416999816894531 61.45500183105469,-65 61.45500183105469,-65 C61.45500183105469,-65 30.829999923706055,-16.25 30.829999923706055,-16.25 C30.829999923706055,-16.25 60.20500183105469,42.70800018310547 60.20500183105469,42.70800018310547 C61.66299819946289,45.625 62.49700164794922,48.75 62.49700164794922,52.08300018310547 C62.49700164794922,52.08300018310547 62.49700164794922,114.58300018310547 62.49700164794922,114.58300018310547 C62.49700164794922,126.04100036621094 53.12099838256836,135.41700744628906 41.66299819946289,135.41700744628906 C30.204999923706055,135.41700744628906 20.829999923706055,126.04100036621094 20.829999923706055,114.58300018310547 C20.829999923706055,114.58300018310547 20.829999923706055,57.08300018310547 20.829999923706055,57.08300018310547 C20.829999923706055,57.08300018310547 -11.253000259399414,-7.291999816894531 -11.253000259399414,-7.291999816894531 C-11.253000259399414,-7.291999816894531 -45.21200180053711,42.91699981689453 -45.21200180053711,42.91699981689453 C-47.91999816894531,46.66699981689453 -51.66999816894531,49.58399963378906 -55.83700180053711,51.04199981689453 C-55.83700180053711,51.04199981689453 -118.33699798583984,71.875 -118.33699798583984,71.875 C-120.62899780273438,72.5 -122.91999816894531,72.91699981689453 -125.00299835205078,72.91699981689453 C-133.7530059814453,72.91699981689453 -141.8780059814453,67.5 -144.7949981689453,58.75 C-148.33700561523438,47.70800018310547 -142.5030059814453,36.04199981689453 -131.6699981689453,32.29199981689453 C-131.6699981689453,32.29199981689453 -75.83699798583984,13.75 -75.83699798583984,13.75 C-75.83699798583984,13.75 -2.9200000762939453,-93.75 -2.9200000762939453,-93.75 C-2.9200000762939453,-93.75 -33.12799835205078,-93.75 -33.12799835205078,-93.75 C-33.12799835205078,-93.75 -68.54499816894531,-58.125 -68.54499816894531,-58.125 C-76.66999816894531,-50 -90.00299835205078,-50 -98.12799835205078,-58.125 C-106.25299835205078,-66.25 -106.25299835205078,-79.58300018310547 -98.12799835205078,-87.70800018310547 C-98.12799835205078,-87.70800018310547 -56.46200180053711,-129.375 -56.46200180053711,-129.375 C-52.50400161743164,-133.125 -47.29499816894531,-135.41700744628906 -41.66999816894531,-135.41700744628906 C-41.66999816894531,-135.41700744628906 42.70500183105469,-135.41700744628906 42.70500183105469,-135.41700744628906 C76.03800201416016,-135.41700744628906 103.12200164794922,-107.29199981689453 103.12200164794922,-72.91699981689453 C103.12200164794922,-72.91699981689453 103.12200164794922,-31.25 103.12200164794922,-31.25 C103.12200164794922,-31.25 124.99700164794922,-31.25 124.99700164794922,-31.25 C136.4550018310547,-31.25 145.8300018310547,-21.875 145.8300018310547,-10.416999816894531z"></path></g></g><g style="display: none;"><g><path></path></g><g><g><g><path></path></g></g></g><g><path></path></g></g></g><g clip-path="url(#__lottie_element_3129)" transform="matrix(1,0,0,1,0,0)" opacity="0" style="display: block;"><g clip-path="url(#__lottie_element_3170)" style="display: none;"><g style="display: none;"><g><g><path></path></g></g></g><g style="display: none;"><g><path stroke-linecap="round" stroke-linejoin="round" fill-opacity="0"></path></g></g><g style="display: none;"><g><path stroke-linecap="round" stroke-linejoin="round" fill-opacity="0"></path></g></g><g style="display: none;"><g><path></path></g></g><g style="display: none;"><g><path></path></g></g><g style="display: none;"><g><path stroke-linecap="round" stroke-linejoin="round" fill-opacity="0"></path></g></g><g style="display: none;"><g><path stroke-linecap="round" stroke-linejoin="round" fill-opacity="0"></path></g></g><g style="display: none;"><g><path stroke-linecap="round" stroke-linejoin="round" fill-opacity="0"></path></g></g></g><g clip-path="url(#__lottie_element_3142)" style="display: none;"><g style="display: none;"><g><g><path></path></g></g></g><g style="display: none;"><g><path stroke-linecap="round" stroke-linejoin="round" fill-opacity="0"></path></g></g><g style="display: none;"><g><path stroke-linecap="round" stroke-linejoin="round" fill-opacity="0"></path></g></g><g style="display: none;"><g><path></path></g></g><g style="display: none;"><g><path></path></g></g><g style="display: none;"><g><path stroke-linecap="round" stroke-linejoin="round" fill-opacity="0"></path></g></g><g style="display: none;"><g><path stroke-linecap="round" stroke-linejoin="round" fill-opacity="0"></path></g></g><g style="display: none;"><g><path stroke-linecap="round" stroke-linejoin="round" fill-opacity="0"></path></g></g></g><g style="display: none;"><g><path></path></g></g><g transform="matrix(1,0,0,1,0,0)" opacity="1" style="display: block;"><g opacity="1" transform="matrix(1,0,0,1,291.7130126953125,250)"><path fill="rgb(0,0,0)" fill-opacity="1" d=" M84.375,208.33299255371094 C84.375,208.33299255371094 41.66699981689453,208.33299255371094 41.66699981689453,208.33299255371094 C30.208999633789062,208.33299255371094 20.83300018310547,198.95799255371094 20.83300018310547,187.5 C20.83300018310547,176.04200744628906 30.208999633789062,166.66700744628906 41.66699981689453,166.66700744628906 C41.66699981689453,166.66700744628906 84.375,166.66700744628906 84.375,166.66700744628906 C84.375,166.66700744628906 83.33300018310547,-167.29200744628906 83.33300018310547,-167.29200744628906 C83.33300018310547,-167.29200744628906 -84.375,-166.66700744628906 -84.375,-166.66700744628906 C-84.375,-166.66700744628906 -83.33300018310547,-125 -83.33300018310547,-125 C-83.33300018310547,-113.54199981689453 -92.70899963378906,-104.16699981689453 -104.16699981689453,-104.16699981689453 C-115.625,-104.16699981689453 -125,-113.54199981689453 -125,-125 C-125,-125 -125,-167.29200744628906 -125,-167.29200744628906 C-125,-189.79200744628906 -106.66699981689453,-208.33299255371094 -84.375,-208.33299255371094 C-84.375,-208.33299255371094 84.375,-208.33299255371094 84.375,-208.33299255371094 C106.66699981689453,-208.33299255371094 125,-189.79200744628906 125,-167.29200744628906 C125,-167.29200744628906 125,167.08299255371094 125,167.08299255371094 C125,190 106.66699981689453,208.33299255371094 84.375,208.33299255371094z"></path></g><g opacity="1" transform="matrix(1,0,0,1,0,0)"><g opacity="1" transform="matrix(1,0,0,1,304.7909851074219,145.83299255371094)"><g opacity="1" transform="matrix(1,0,0,1,0,0)"><path fill="rgb(0,0,0)" fill-opacity="1" d=" M29.83799934387207,5.833000183105469 C29.83799934387207,5.833000183105469 14.838000297546387,31.66699981689453 14.838000297546387,31.66699981689453 C11.920999526977539,36.45899963378906 6.921000003814697,39.16699981689453 1.7130000591278076,39.16699981689453 C-0.7870000004768372,39.16699981689453 -3.2869999408721924,38.54100036621094 -5.7870001792907715,37.08300018310547 C-5.7870001792907715,37.08300018310547 -18.70400047302246,29.58300018310547 -18.70400047302246,29.58300018310547 C-33.07899856567383,21.25 -38.077999114990234,2.9170000553131104 -29.7450008392334,-11.25 C-29.7450008392334,-11.25 -22.2450008392334,-24.16699981689453 -22.2450008392334,-24.16699981689453 C-16.6200008392334,-33.95899963378906 -6.4120001792907715,-39.16699981689453 3.7960000038146973,-39.16699981689453 C8.795999526977539,-39.16699981689453 14.213000297546387,-38.125 18.79599952697754,-35.20800018310547 C33.17100143432617,-27.08300018310547 37.9630012512207,-8.541999816894531 29.83799934387207,5.833000183105469z"></path></g></g></g><g opacity="1" transform="matrix(1,0,0,1,208.38299560546875,322.9169921875)"><path fill="rgb(0,0,0)" fill-opacity="1" d=" M145.8300018310547,-10.416999816894531 C145.8300018310547,1.0410000085830688 136.4550018310547,10.416999816894531 124.99700164794922,10.416999816894531 C124.99700164794922,10.416999816894531 82.28800201416016,10.416999816894531 82.28800201416016,10.416999816894531 C70.83000183105469,10.416999816894531 61.45500183105469,1.0410000085830688 61.45500183105469,-10.416999816894531 C61.45500183105469,-10.416999816894531 61.45500183105469,-65 61.45500183105469,-65 C61.45500183105469,-65 30.829999923706055,-16.25 30.829999923706055,-16.25 C30.829999923706055,-16.25 60.20500183105469,42.70800018310547 60.20500183105469,42.70800018310547 C61.66299819946289,45.625 62.49700164794922,48.75 62.49700164794922,52.08300018310547 C62.49700164794922,52.08300018310547 62.49700164794922,114.58300018310547 62.49700164794922,114.58300018310547 C62.49700164794922,126.04100036621094 53.12099838256836,135.41700744628906 41.66299819946289,135.41700744628906 C30.204999923706055,135.41700744628906 20.829999923706055,126.04100036621094 20.829999923706055,114.58300018310547 C20.829999923706055,114.58300018310547 20.829999923706055,57.08300018310547 20.829999923706055,57.08300018310547 C20.829999923706055,57.08300018310547 -11.253000259399414,-7.291999816894531 -11.253000259399414,-7.291999816894531 C-11.253000259399414,-7.291999816894531 -45.21200180053711,42.91699981689453 -45.21200180053711,42.91699981689453 C-47.91999816894531,46.66699981689453 -51.66999816894531,49.58399963378906 -55.83700180053711,51.04199981689453 C-55.83700180053711,51.04199981689453 -118.33699798583984,71.875 -118.33699798583984,71.875 C-120.62899780273438,72.5 -122.91999816894531,72.91699981689453 -125.00299835205078,72.91699981689453 C-133.7530059814453,72.91699981689453 -141.8780059814453,67.5 -144.7949981689453,58.75 C-148.33700561523438,47.70800018310547 -142.5030059814453,36.04199981689453 -131.6699981689453,32.29199981689453 C-131.6699981689453,32.29199981689453 -75.83699798583984,13.75 -75.83699798583984,13.75 C-75.83699798583984,13.75 -2.9200000762939453,-93.75 -2.9200000762939453,-93.75 C-2.9200000762939453,-93.75 -33.12799835205078,-93.75 -33.12799835205078,-93.75 C-33.12799835205078,-93.75 -68.54499816894531,-58.125 -68.54499816894531,-58.125 C-76.66999816894531,-50 -90.00299835205078,-50 -98.12799835205078,-58.125 C-106.25299835205078,-66.25 -106.25299835205078,-79.58300018310547 -98.12799835205078,-87.70800018310547 C-98.12799835205078,-87.70800018310547 -56.46200180053711,-129.375 -56.46200180053711,-129.375 C-52.50400161743164,-133.125 -47.29499816894531,-135.41700744628906 -41.66999816894531,-135.41700744628906 C-41.66999816894531,-135.41700744628906 42.70500183105469,-135.41700744628906 42.70500183105469,-135.41700744628906 C76.03800201416016,-135.41700744628906 103.12200164794922,-107.29199981689453 103.12200164794922,-72.91699981689453 C103.12200164794922,-72.91699981689453 103.12200164794922,-31.25 103.12200164794922,-31.25 C103.12200164794922,-31.25 124.99700164794922,-31.25 124.99700164794922,-31.25 C136.4550018310547,-31.25 145.8300018310547,-21.875 145.8300018310547,-10.416999816894531z"></path></g></g><g style="display: none;"><g><path></path></g><g><g><g><path></path></g></g></g><g><path></path></g></g></g><g clip-path="url(#__lottie_element_2996)" transform="matrix(1,0,0,1,0,0)" opacity="1" style="display: block;"><g style="display: none;"><g><path></path></g></g><g clip-path="url(#__lottie_element_3098)" style="display: none;"><g style="display: none;"><g><g><path></path></g></g></g><g style="display: none;"><g><path stroke-linecap="round" stroke-linejoin="round" fill-opacity="0"></path></g></g><g style="display: none;"><g><path stroke-linecap="round" stroke-linejoin="round" fill-opacity="0"></path></g></g><g style="display: none;"><g><path></path></g></g><g style="display: none;"><g><path></path></g></g><g style="display: none;"><g><path stroke-linecap="round" stroke-linejoin="round" fill-opacity="0"></path></g></g><g style="display: none;"><g><path stroke-linecap="round" stroke-linejoin="round" fill-opacity="0"></path></g></g><g style="display: none;"><g><path stroke-linecap="round" stroke-linejoin="round" fill-opacity="0"></path></g></g></g><g mask="url(#__lottie_element_3065)" style="display: none;"><g clip-path="url(#__lottie_element_3070)"><g style="display: none;"><g><g><path></path></g></g></g><g style="display: none;"><g><path stroke-linecap="round" stroke-linejoin="round" fill-opacity="0"></path></g></g><g style="display: none;"><g><path stroke-linecap="round" stroke-linejoin="round" fill-opacity="0"></path></g></g><g style="display: none;"><g><path></path></g></g><g style="display: none;"><g><path></path></g></g><g style="display: none;"><g><path stroke-linecap="round" stroke-linejoin="round" fill-opacity="0"></path></g></g><g style="display: none;"><g><path stroke-linecap="round" stroke-linejoin="round" fill-opacity="0"></path></g></g><g style="display: none;"><g><path stroke-linecap="round" stroke-linejoin="round" fill-opacity="0"></path></g></g></g></g><g clip-path="url(#__lottie_element_3038)" style="display: none;"><g style="display: none;"><g><g><path></path></g></g></g><g style="display: none;"><g><path stroke-linecap="round" stroke-linejoin="round" fill-opacity="0"></path></g></g><g style="display: none;"><g><path stroke-linecap="round" stroke-linejoin="round" fill-opacity="0"></path></g></g><g style="display: none;"><g><path></path></g></g><g style="display: none;"><g><path></path></g></g><g style="display: none;"><g><path stroke-linecap="round" stroke-linejoin="round" fill-opacity="0"></path></g></g><g style="display: none;"><g><path stroke-linecap="round" stroke-linejoin="round" fill-opacity="0"></path></g></g><g style="display: none;"><g><path stroke-linecap="round" stroke-linejoin="round" fill-opacity="0"></path></g></g></g><g mask="url(#__lottie_element_3005)" style="display: none;"><g clip-path="url(#__lottie_element_3010)"><g style="display: none;"><g><g><path></path></g></g></g><g style="display: none;"><g><path stroke-linecap="round" stroke-linejoin="round" fill-opacity="0"></path></g></g><g style="display: none;"><g><path stroke-linecap="round" stroke-linejoin="round" fill-opacity="0"></path></g></g><g style="display: none;"><g><path></path></g></g><g style="display: none;"><g><path></path></g></g><g style="display: none;"><g><path stroke-linecap="round" stroke-linejoin="round" fill-opacity="0"></path></g></g><g style="display: none;"><g><path stroke-linecap="round" stroke-linejoin="round" fill-opacity="0"></path></g></g><g style="display: none;"><g><path stroke-linecap="round" stroke-linejoin="round" fill-opacity="0"></path></g></g></g></g><g transform="matrix(1,0,0,1,0,0)" opacity="1" style="display: block;"><g opacity="1" transform="matrix(1,0,0,1,291.7130126953125,250)"><path fill="rgb(0,0,0)" fill-opacity="1" d=" M84.375,208.33299255371094 C84.375,208.33299255371094 41.66699981689453,208.33299255371094 41.66699981689453,208.33299255371094 C30.208999633789062,208.33299255371094 20.83300018310547,198.95799255371094 20.83300018310547,187.5 C20.83300018310547,176.04200744628906 30.208999633789062,166.66700744628906 41.66699981689453,166.66700744628906 C41.66699981689453,166.66700744628906 84.375,166.66700744628906 84.375,166.66700744628906 C84.375,166.66700744628906 83.33300018310547,-167.29200744628906 83.33300018310547,-167.29200744628906 C83.33300018310547,-167.29200744628906 -84.375,-166.66700744628906 -84.375,-166.66700744628906 C-84.375,-166.66700744628906 -83.33300018310547,-125 -83.33300018310547,-125 C-83.33300018310547,-113.54199981689453 -92.70899963378906,-104.16699981689453 -104.16699981689453,-104.16699981689453 C-115.625,-104.16699981689453 -125,-113.54199981689453 -125,-125 C-125,-125 -125,-167.29200744628906 -125,-167.29200744628906 C-125,-189.79200744628906 -106.66699981689453,-208.33299255371094 -84.375,-208.33299255371094 C-84.375,-208.33299255371094 84.375,-208.33299255371094 84.375,-208.33299255371094 C106.66699981689453,-208.33299255371094 125,-189.79200744628906 125,-167.29200744628906 C125,-167.29200744628906 125,167.08299255371094 125,167.08299255371094 C125,190 106.66699981689453,208.33299255371094 84.375,208.33299255371094z"></path></g><g opacity="1" transform="matrix(1,0,0,1,0,0)"><g opacity="1" transform="matrix(1,0,0,1,304.7909851074219,145.83299255371094)"><g opacity="1" transform="matrix(1,0,0,1,0,0)"><path fill="rgb(0,0,0)" fill-opacity="1" d=" M29.83799934387207,5.833000183105469 C29.83799934387207,5.833000183105469 14.838000297546387,31.66699981689453 14.838000297546387,31.66699981689453 C11.920999526977539,36.45899963378906 6.921000003814697,39.16699981689453 1.7130000591278076,39.16699981689453 C-0.7870000004768372,39.16699981689453 -3.2869999408721924,38.54100036621094 -5.7870001792907715,37.08300018310547 C-5.7870001792907715,37.08300018310547 -18.70400047302246,29.58300018310547 -18.70400047302246,29.58300018310547 C-33.07899856567383,21.25 -38.077999114990234,2.9170000553131104 -29.7450008392334,-11.25 C-29.7450008392334,-11.25 -22.2450008392334,-24.16699981689453 -22.2450008392334,-24.16699981689453 C-16.6200008392334,-33.95899963378906 -6.4120001792907715,-39.16699981689453 3.7960000038146973,-39.16699981689453 C8.795999526977539,-39.16699981689453 14.213000297546387,-38.125 18.79599952697754,-35.20800018310547 C33.17100143432617,-27.08300018310547 37.9630012512207,-8.541999816894531 29.83799934387207,5.833000183105469z"></path></g></g></g><g opacity="1" transform="matrix(1,0,0,1,208.38299560546875,322.9169921875)"><path fill="rgb(0,0,0)" fill-opacity="1" d=" M145.8300018310547,-10.416999816894531 C145.8300018310547,1.0410000085830688 136.4550018310547,10.416999816894531 124.99700164794922,10.416999816894531 C124.99700164794922,10.416999816894531 82.28800201416016,10.416999816894531 82.28800201416016,10.416999816894531 C70.83000183105469,10.416999816894531 61.45500183105469,1.0410000085830688 61.45500183105469,-10.416999816894531 C61.45500183105469,-10.416999816894531 61.45500183105469,-65 61.45500183105469,-65 C61.45500183105469,-65 30.829999923706055,-16.25 30.829999923706055,-16.25 C30.829999923706055,-16.25 60.20500183105469,42.70800018310547 60.20500183105469,42.70800018310547 C61.66299819946289,45.625 62.49700164794922,48.75 62.49700164794922,52.08300018310547 C62.49700164794922,52.08300018310547 62.49700164794922,114.58300018310547 62.49700164794922,114.58300018310547 C62.49700164794922,126.04100036621094 53.12099838256836,135.41700744628906 41.66299819946289,135.41700744628906 C30.204999923706055,135.41700744628906 20.829999923706055,126.04100036621094 20.829999923706055,114.58300018310547 C20.829999923706055,114.58300018310547 20.829999923706055,57.08300018310547 20.829999923706055,57.08300018310547 C20.829999923706055,57.08300018310547 -11.253000259399414,-7.291999816894531 -11.253000259399414,-7.291999816894531 C-11.253000259399414,-7.291999816894531 -45.21200180053711,42.91699981689453 -45.21200180053711,42.91699981689453 C-47.91999816894531,46.66699981689453 -51.66999816894531,49.58399963378906 -55.83700180053711,51.04199981689453 C-55.83700180053711,51.04199981689453 -118.33699798583984,71.875 -118.33699798583984,71.875 C-120.62899780273438,72.5 -122.91999816894531,72.91699981689453 -125.00299835205078,72.91699981689453 C-133.7530059814453,72.91699981689453 -141.8780059814453,67.5 -144.7949981689453,58.75 C-148.33700561523438,47.70800018310547 -142.5030059814453,36.04199981689453 -131.6699981689453,32.29199981689453 C-131.6699981689453,32.29199981689453 -75.83699798583984,13.75 -75.83699798583984,13.75 C-75.83699798583984,13.75 -2.9200000762939453,-93.75 -2.9200000762939453,-93.75 C-2.9200000762939453,-93.75 -33.12799835205078,-93.75 -33.12799835205078,-93.75 C-33.12799835205078,-93.75 -68.54499816894531,-58.125 -68.54499816894531,-58.125 C-76.66999816894531,-50 -90.00299835205078,-50 -98.12799835205078,-58.125 C-106.25299835205078,-66.25 -106.25299835205078,-79.58300018310547 -98.12799835205078,-87.70800018310547 C-98.12799835205078,-87.70800018310547 -56.46200180053711,-129.375 -56.46200180053711,-129.375 C-52.50400161743164,-133.125 -47.29499816894531,-135.41700744628906 -41.66999816894531,-135.41700744628906 C-41.66999816894531,-135.41700744628906 42.70500183105469,-135.41700744628906 42.70500183105469,-135.41700744628906 C76.03800201416016,-135.41700744628906 103.12200164794922,-107.29199981689453 103.12200164794922,-72.91699981689453 C103.12200164794922,-72.91699981689453 103.12200164794922,-31.25 103.12200164794922,-31.25 C103.12200164794922,-31.25 124.99700164794922,-31.25 124.99700164794922,-31.25 C136.4550018310547,-31.25 145.8300018310547,-21.875 145.8300018310547,-10.416999816894531z"></path></g></g><g style="display: none;"><g><path></path></g><g><g><g><path></path></g></g></g><g><path></path></g></g></g><g clip-path="url(#__lottie_element_2895)" transform="matrix(1,0,0,1,0,0)" opacity="0" style="display: block;"><g clip-path="url(#__lottie_element_2968)" style="display: none;"><g style="display: none;"><g><g><path></path></g></g></g><g style="display: none;"><g><path stroke-linecap="round" stroke-linejoin="round" fill-opacity="0"></path></g></g><g style="display: none;"><g><path stroke-linecap="round" stroke-linejoin="round" fill-opacity="0"></path></g></g><g style="display: none;"><g><path></path></g></g><g style="display: none;"><g><path></path></g></g><g style="display: none;"><g><path stroke-linecap="round" stroke-linejoin="round" fill-opacity="0"></path></g></g><g style="display: none;"><g><path stroke-linecap="round" stroke-linejoin="round" fill-opacity="0"></path></g></g><g style="display: none;"><g><path stroke-linecap="round" stroke-linejoin="round" fill-opacity="0"></path></g></g></g><g mask="url(#__lottie_element_2935)" style="display: none;"><g clip-path="url(#__lottie_element_2940)"><g style="display: none;"><g><g><path></path></g></g></g><g style="display: none;"><g><path stroke-linecap="round" stroke-linejoin="round" fill-opacity="0"></path></g></g><g style="display: none;"><g><path stroke-linecap="round" stroke-linejoin="round" fill-opacity="0"></path></g></g><g style="display: none;"><g><path></path></g></g><g style="display: none;"><g><path></path></g></g><g style="display: none;"><g><path stroke-linecap="round" stroke-linejoin="round" fill-opacity="0"></path></g></g><g style="display: none;"><g><path stroke-linecap="round" stroke-linejoin="round" fill-opacity="0"></path></g></g><g style="display: none;"><g><path stroke-linecap="round" stroke-linejoin="round" fill-opacity="0"></path></g></g></g></g><g clip-path="url(#__lottie_element_2908)" style="display: none;"><g style="display: none;"><g><g><path></path></g></g></g><g style="display: none;"><g><path stroke-linecap="round" stroke-linejoin="round" fill-opacity="0"></path></g></g><g style="display: none;"><g><path stroke-linecap="round" stroke-linejoin="round" fill-opacity="0"></path></g></g><g style="display: none;"><g><path></path></g></g><g style="display: none;"><g><path></path></g></g><g style="display: none;"><g><path stroke-linecap="round" stroke-linejoin="round" fill-opacity="0"></path></g></g><g style="display: none;"><g><path stroke-linecap="round" stroke-linejoin="round" fill-opacity="0"></path></g></g><g style="display: none;"><g><path stroke-linecap="round" stroke-linejoin="round" fill-opacity="0"></path></g></g></g><g style="display: none;"><g><path></path></g></g><g style="display: none;"><g><path></path></g><g><g><g><path></path></g></g></g><g><path></path></g></g><g style="display: none;"><g><path stroke-linecap="round" stroke-linejoin="round" fill-opacity="0"></path></g></g></g><g style="display: none;"><path></path></g></g></svg>