<svg xmlns="http://www.w3.org/2000/svg" viewBox="0 0 500 500" width="500" height="500" preserveAspectRatio="xMidYMid meet" style="width: 100%; height: 100%; transform: translate3d(0px, 0px, 0px); content-visibility: visible;"><defs><clipPath id="__lottie_element_3331"><rect width="500" height="500" x="0" y="0"></rect></clipPath><clipPath id="__lottie_element_3338"><path d="M0,0 L500,0 L500,500 L0,500z"></path></clipPath><clipPath id="__lottie_element_3348"><path d="M0,0 L500,0 L500,500 L0,500z"></path></clipPath><clipPath id="__lottie_element_3362"><path d="M0,0 L500,0 L500,500 L0,500z"></path></clipPath><clipPath id="__lottie_element_3375"><path d="M0,0 L500,0 L500,500 L0,500z"></path></clipPath></defs><g clip-path="url(#__lottie_element_3331)"><g clip-path="url(#__lottie_element_3375)" transform="matrix(1,0,0,1,0,0)" opacity="0" style="display: block;"><g class="primary design" style="display: none;"><g><path stroke-linecap="round" stroke-linejoin="round" fill-opacity="0"></path><path></path></g></g><g class="primary design" style="display: none;"><g><path></path></g></g><g class="primary design" transform="matrix(1,0,0,1,250,250)" opacity="1" style="display: block;"><g opacity="1" transform="matrix(1,0,0,1,0,0)"><path fill="rgb(0,0,0)" fill-opacity="1" d=" M0.04600000008940697,-208.33299255371094 C-91.8280029296875,-208.33299255371094 -166.62100219726562,-132.08399963378906 -166.62100219726562,-38.54100036621094 C-166.62100219726562,-26.04199981689453 -165.3699951171875,-14.583999633789062 -163.07899475097656,-4.166999816894531 C-157.87100219726562,22.5 -145.99600219726562,47.91699981689453 -128.0800018310547,70 C-128.0800018310547,70 -14.121000289916992,201.24899291992188 -14.121000289916992,201.24899291992188 C-10.163000106811523,205.83299255371094 -4.328999996185303,208.33299255371094 1.7130000591278076,208.33299255371094 C7.9629998207092285,208.33299255371094 13.588000297546387,205.625 17.54599952697754,201.04200744628906 C17.54599952697754,201.04200744628906 128.58700561523438,69.375 128.58700561523438,69.375 C146.08799743652344,47.91600036621094 157.96299743652344,22.500999450683594 162.96299743652344,-3.5409998893737793 C165.46299743652344,-14.583000183105469 166.71299743652344,-26.04199981689453 166.71299743652344,-38.54100036621094 C166.71299743652344,-132.08399963378906 91.91999816894531,-208.33299255371094 0.04600000008940697,-208.33299255371094z M0.04600000008940697,20.83300018310547 C-34.33000183105469,20.83300018310547 -62.45399856567383,-7.290999889373779 -62.45399856567383,-41.66699981689453 C-62.45399856567383,-76.04299926757812 -34.33000183105469,-104.16699981689453 0.04600000008940697,-104.16699981689453 C34.422000885009766,-104.16699981689453 62.54600143432617,-76.04299926757812 62.54600143432617,-41.66699981689453 C62.54600143432617,-7.290999889373779 34.422000885009766,20.83300018310547 0.04600000008940697,20.83300018310547z"></path></g></g></g><g clip-path="url(#__lottie_element_3362)" transform="matrix(1,0,0,1,0,0)" opacity="0" style="display: block;"><g class="primary design" style="display: none;"><g><path stroke-linecap="round" stroke-linejoin="round" fill-opacity="0"></path><path></path></g></g><g class="primary design" transform="matrix(1,0,0,1,250,250)" opacity="1" style="display: block;"><g opacity="1" transform="matrix(1,0,0,1,0,0)"><path fill="rgb(0,0,0)" fill-opacity="1" d=" M0.04600000008940697,-208.33299255371094 C-91.8280029296875,-208.33299255371094 -166.62100219726562,-132.08399963378906 -166.62100219726562,-38.54100036621094 C-166.62100219726562,-26.04199981689453 -165.3699951171875,-14.583999633789062 -163.07899475097656,-4.166999816894531 C-157.87100219726562,22.5 -145.99600219726562,47.91699981689453 -128.0800018310547,70 C-128.0800018310547,70 -14.121000289916992,201.24899291992188 -14.121000289916992,201.24899291992188 C-10.163000106811523,205.83299255371094 -4.328999996185303,208.33299255371094 1.7130000591278076,208.33299255371094 C7.9629998207092285,208.33299255371094 13.588000297546387,205.625 17.54599952697754,201.04200744628906 C17.54599952697754,201.04200744628906 128.58700561523438,69.375 128.58700561523438,69.375 C146.08799743652344,47.91600036621094 157.96299743652344,22.500999450683594 162.96299743652344,-3.5409998893737793 C165.46299743652344,-14.583000183105469 166.71299743652344,-26.04199981689453 166.71299743652344,-38.54100036621094 C166.71299743652344,-132.08399963378906 91.91999816894531,-208.33299255371094 0.04600000008940697,-208.33299255371094z M0.04600000008940697,20.83300018310547 C-34.33000183105469,20.83300018310547 -62.45399856567383,-7.290999889373779 -62.45399856567383,-41.66699981689453 C-62.45399856567383,-76.04299926757812 -34.33000183105469,-104.16699981689453 0.04600000008940697,-104.16699981689453 C34.422000885009766,-104.16699981689453 62.54600143432617,-76.04299926757812 62.54600143432617,-41.66699981689453 C62.54600143432617,-7.290999889373779 34.422000885009766,20.83300018310547 0.04600000008940697,20.83300018310547z"></path></g></g><g class="primary design" style="display: none;"><g><path></path></g></g></g><g clip-path="url(#__lottie_element_3348)" transform="matrix(1,0,0,1,0,0)" opacity="1" style="display: block;"><g class="primary design" style="display: none;"><g><path></path><path stroke-linecap="round" stroke-linejoin="round" fill-opacity="0"></path></g></g><g class="primary design" style="display: none;"><g><path></path><path stroke-linecap="round" stroke-linejoin="round" fill-opacity="0"></path></g></g><g class="primary design" transform="matrix(1,0,0,1,250,250)" opacity="1" style="display: block;"><g opacity="1" transform="matrix(1,0,0,1,0,0)"><path fill="rgb(0,0,0)" fill-opacity="1" d=" M0.04600000008940697,-208.33299255371094 C-91.8280029296875,-208.33299255371094 -166.62100219726562,-132.08399963378906 -166.62100219726562,-38.54100036621094 C-166.62100219726562,-26.04199981689453 -165.3699951171875,-14.583999633789062 -163.07899475097656,-4.166999816894531 C-157.87100219726562,22.5 -145.99600219726562,47.91699981689453 -128.0800018310547,70 C-128.0800018310547,70 -14.121000289916992,201.24899291992188 -14.121000289916992,201.24899291992188 C-10.163000106811523,205.83299255371094 -4.328999996185303,208.33299255371094 1.7130000591278076,208.33299255371094 C7.9629998207092285,208.33299255371094 13.588000297546387,205.625 17.54599952697754,201.04200744628906 C17.54599952697754,201.04200744628906 128.58700561523438,69.375 128.58700561523438,69.375 C146.08799743652344,47.91600036621094 157.96299743652344,22.500999450683594 162.96299743652344,-3.5409998893737793 C165.46299743652344,-14.583000183105469 166.71299743652344,-26.04199981689453 166.71299743652344,-38.54100036621094 C166.71299743652344,-132.08399963378906 91.91999816894531,-208.33299255371094 0.04600000008940697,-208.33299255371094z M0.04600000008940697,20.83300018310547 C-34.33000183105469,20.83300018310547 -62.45399856567383,-7.290999889373779 -62.45399856567383,-41.66699981689453 C-62.45399856567383,-76.04299926757812 -34.33000183105469,-104.16699981689453 0.04600000008940697,-104.16699981689453 C34.422000885009766,-104.16699981689453 62.54600143432617,-76.04299926757812 62.54600143432617,-41.66699981689453 C62.54600143432617,-7.290999889373779 34.422000885009766,20.83300018310547 0.04600000008940697,20.83300018310547z"></path></g></g></g><g clip-path="url(#__lottie_element_3338)" transform="matrix(1,0,0,1,0,0)" opacity="0" style="display: block;"><g class="primary design" style="display: none;"><g><path stroke-linecap="round" stroke-linejoin="round" fill-opacity="0"></path><path></path></g></g><g class="primary design" style="display: none;"><g><path></path></g></g></g><g class="com" style="display: none;"><g><path></path></g><g><path></path></g><g><path></path></g><g><path></path></g><g><path></path></g><g><path></path></g><g><path></path></g><g><path></path></g><g><path></path></g><g><path></path></g><g><path></path></g><g><path></path></g></g></g></svg>